0
SECTION
2
HEADER
9
$INSUNITS
70
4
0
ENDSEC
0
SECTION
2
TABLES
0
TABLE
2
LTYPE
0
LTYPE
72
65
70
64
2
CONTINUOUS
3
______
73
0
40
0
0
ENDTAB
0
TABLE
2
LAYER
0
ENDTAB
0
ENDSEC
0
SECTION
2
ENTITIES
0
LINE
8
0
10
2.525
20
-2.525
11
16.525
21
-2.525
0
LINE
8
0
10
2.525
20
-16.525
11
16.525
21
-16.525
0
LINE
8
0
10
2.525
20
-2.525
11
2.525
21
-16.525
0
LINE
8
0
10
16.525
20
-2.525
11
16.525
21
-16.525
0
LINE
8
0
10
26.3375
20
-2.525
11
40.3375
21
-2.525
0
LINE
8
0
10
26.3375
20
-16.525
11
40.3375
21
-16.525
0
LINE
8
0
10
26.3375
20
-2.525
11
26.3375
21
-16.525
0
LINE
8
0
10
40.3375
20
-2.525
11
40.3375
21
-16.525
0
LINE
8
0
10
45.3875
20
-2.525
11
59.3875
21
-2.525
0
LINE
8
0
10
45.3875
20
-16.525
11
59.3875
21
-16.525
0
LINE
8
0
10
45.3875
20
-2.525
11
45.3875
21
-16.525
0
LINE
8
0
10
59.3875
20
-2.525
11
59.3875
21
-16.525
0
LINE
8
0
10
64.4375
20
-2.525
11
78.4375
21
-2.525
0
LINE
8
0
10
64.4375
20
-16.525
11
78.4375
21
-16.525
0
LINE
8
0
10
64.4375
20
-2.525
11
64.4375
21
-16.525
0
LINE
8
0
10
78.4375
20
-2.525
11
78.4375
21
-16.525
0
LINE
8
0
10
83.4875
20
-2.525
11
97.4875
21
-2.525
0
LINE
8
0
10
83.4875
20
-16.525
11
97.4875
21
-16.525
0
LINE
8
0
10
83.4875
20
-2.525
11
83.4875
21
-16.525
0
LINE
8
0
10
97.4875
20
-2.525
11
97.4875
21
-16.525
0
LINE
8
0
10
107.3
20
-2.525
11
121.3
21
-2.525
0
LINE
8
0
10
107.3
20
-16.525
11
121.3
21
-16.525
0
LINE
8
0
10
107.3
20
-2.525
11
107.3
21
-16.525
0
LINE
8
0
10
121.3
20
-2.525
11
121.3
21
-16.525
0
LINE
8
0
10
126.35
20
-2.525
11
140.35
21
-2.525
0
LINE
8
0
10
126.35
20
-16.525
11
140.35
21
-16.525
0
LINE
8
0
10
126.35
20
-2.525
11
126.35
21
-16.525
0
LINE
8
0
10
140.35
20
-2.525
11
140.35
21
-16.525
0
LINE
8
0
10
145.4
20
-2.525
11
159.4
21
-2.525
0
LINE
8
0
10
145.4
20
-16.525
11
159.4
21
-16.525
0
LINE
8
0
10
145.4
20
-2.525
11
145.4
21
-16.525
0
LINE
8
0
10
159.4
20
-2.525
11
159.4
21
-16.525
0
LINE
8
0
10
164.45
20
-2.525
11
178.45
21
-2.525
0
LINE
8
0
10
164.45
20
-16.525
11
178.45
21
-16.525
0
LINE
8
0
10
164.45
20
-2.525
11
164.45
21
-16.525
0
LINE
8
0
10
178.45
20
-2.525
11
178.45
21
-16.525
0
LINE
8
0
10
188.2625
20
-2.525
11
202.2625
21
-2.525
0
LINE
8
0
10
188.2625
20
-16.525
11
202.2625
21
-16.525
0
LINE
8
0
10
188.2625
20
-2.525
11
188.2625
21
-16.525
0
LINE
8
0
10
202.2625
20
-2.525
11
202.2625
21
-16.525
0
LINE
8
0
10
207.3125
20
-2.525
11
221.3125
21
-2.525
0
LINE
8
0
10
207.3125
20
-16.525
11
221.3125
21
-16.525
0
LINE
8
0
10
207.3125
20
-2.525
11
207.3125
21
-16.525
0
LINE
8
0
10
221.3125
20
-2.525
11
221.3125
21
-16.525
0
LINE
8
0
10
226.3625
20
-2.525
11
240.3625
21
-2.525
0
LINE
8
0
10
226.3625
20
-16.525
11
240.3625
21
-16.525
0
LINE
8
0
10
226.3625
20
-2.525
11
226.3625
21
-16.525
0
LINE
8
0
10
240.3625
20
-2.525
11
240.3625
21
-16.525
0
LINE
8
0
10
245.4125
20
-2.525
11
259.4125
21
-2.525
0
LINE
8
0
10
245.4125
20
-16.525
11
259.4125
21
-16.525
0
LINE
8
0
10
245.4125
20
-2.525
11
245.4125
21
-16.525
0
LINE
8
0
10
259.4125
20
-2.525
11
259.4125
21
-16.525
0
LINE
8
0
10
269.225
20
-2.525
11
283.225
21
-2.525
0
LINE
8
0
10
269.225
20
-16.525
11
283.225
21
-16.525
0
LINE
8
0
10
269.225
20
-2.525
11
269.225
21
-16.525
0
LINE
8
0
10
283.225
20
-2.525
11
283.225
21
-16.525
0
LINE
8
0
10
2.525
20
-26.3375
11
16.525
21
-26.3375
0
LINE
8
0
10
2.525
20
-40.3375
11
16.525
21
-40.3375
0
LINE
8
0
10
2.525
20
-26.3375
11
2.525
21
-40.3375
0
LINE
8
0
10
16.525
20
-26.3375
11
16.525
21
-40.3375
0
LINE
8
0
10
21.575
20
-26.3375
11
35.575
21
-26.3375
0
LINE
8
0
10
21.575
20
-40.3375
11
35.575
21
-40.3375
0
LINE
8
0
10
21.575
20
-26.3375
11
21.575
21
-40.3375
0
LINE
8
0
10
35.575
20
-26.3375
11
35.575
21
-40.3375
0
LINE
8
0
10
40.625
20
-26.3375
11
54.625
21
-26.3375
0
LINE
8
0
10
40.625
20
-40.3375
11
54.625
21
-40.3375
0
LINE
8
0
10
40.625
20
-26.3375
11
40.625
21
-40.3375
0
LINE
8
0
10
54.625
20
-26.3375
11
54.625
21
-40.3375
0
LINE
8
0
10
59.675
20
-26.3375
11
73.675
21
-26.3375
0
LINE
8
0
10
59.675
20
-40.3375
11
73.675
21
-40.3375
0
LINE
8
0
10
59.675
20
-26.3375
11
59.675
21
-40.3375
0
LINE
8
0
10
73.675
20
-26.3375
11
73.675
21
-40.3375
0
LINE
8
0
10
78.725
20
-26.3375
11
92.725
21
-26.3375
0
LINE
8
0
10
78.725
20
-40.3375
11
92.725
21
-40.3375
0
LINE
8
0
10
78.725
20
-26.3375
11
78.725
21
-40.3375
0
LINE
8
0
10
92.725
20
-26.3375
11
92.725
21
-40.3375
0
LINE
8
0
10
97.775
20
-26.3375
11
111.775
21
-26.3375
0
LINE
8
0
10
97.775
20
-40.3375
11
111.775
21
-40.3375
0
LINE
8
0
10
97.775
20
-26.3375
11
97.775
21
-40.3375
0
LINE
8
0
10
111.775
20
-26.3375
11
111.775
21
-40.3375
0
LINE
8
0
10
116.825
20
-26.3375
11
130.825
21
-26.3375
0
LINE
8
0
10
116.825
20
-40.3375
11
130.825
21
-40.3375
0
LINE
8
0
10
116.825
20
-26.3375
11
116.825
21
-40.3375
0
LINE
8
0
10
130.825
20
-26.3375
11
130.825
21
-40.3375
0
LINE
8
0
10
135.875
20
-26.3375
11
149.875
21
-26.3375
0
LINE
8
0
10
135.875
20
-40.3375
11
149.875
21
-40.3375
0
LINE
8
0
10
135.875
20
-26.3375
11
135.875
21
-40.3375
0
LINE
8
0
10
149.875
20
-26.3375
11
149.875
21
-40.3375
0
LINE
8
0
10
154.925
20
-26.3375
11
168.925
21
-26.3375
0
LINE
8
0
10
154.925
20
-40.3375
11
168.925
21
-40.3375
0
LINE
8
0
10
154.925
20
-26.3375
11
154.925
21
-40.3375
0
LINE
8
0
10
168.925
20
-26.3375
11
168.925
21
-40.3375
0
LINE
8
0
10
173.975
20
-26.3375
11
187.975
21
-26.3375
0
LINE
8
0
10
173.975
20
-40.3375
11
187.975
21
-40.3375
0
LINE
8
0
10
173.975
20
-26.3375
11
173.975
21
-40.3375
0
LINE
8
0
10
187.975
20
-26.3375
11
187.975
21
-40.3375
0
LINE
8
0
10
193.025
20
-26.3375
11
207.025
21
-26.3375
0
LINE
8
0
10
193.025
20
-40.3375
11
207.025
21
-40.3375
0
LINE
8
0
10
193.025
20
-26.3375
11
193.025
21
-40.3375
0
LINE
8
0
10
207.025
20
-26.3375
11
207.025
21
-40.3375
0
LINE
8
0
10
212.075
20
-26.3375
11
226.075
21
-26.3375
0
LINE
8
0
10
212.075
20
-40.3375
11
226.075
21
-40.3375
0
LINE
8
0
10
212.075
20
-26.3375
11
212.075
21
-40.3375
0
LINE
8
0
10
226.075
20
-26.3375
11
226.075
21
-40.3375
0
LINE
8
0
10
231.125
20
-26.3375
11
245.125
21
-26.3375
0
LINE
8
0
10
231.125
20
-40.3375
11
245.125
21
-40.3375
0
LINE
8
0
10
231.125
20
-26.3375
11
231.125
21
-40.3375
0
LINE
8
0
10
245.125
20
-26.3375
11
245.125
21
-40.3375
0
LINE
8
0
10
259.7
20
-26.3375
11
273.7
21
-26.3375
0
LINE
8
0
10
259.7
20
-40.3375
11
273.7
21
-40.3375
0
LINE
8
0
10
259.7
20
-26.3375
11
259.7
21
-40.3375
0
LINE
8
0
10
273.7
20
-26.3375
11
273.7
21
-40.3375
0
LINE
8
0
10
251.4346
20
-27.6479
11
258.0894
21
-27.6479
0
LINE
8
0
10
258.0894
20
-27.6479
11
258.0894
21
-28.4607
0
LINE
8
0
10
258.0894
20
-28.4607
11
266.7
21
-28.4607
0
LINE
8
0
10
266.7
20
-39.1541
11
258.0894
21
-39.1541
0
LINE
8
0
10
258.0894
20
-39.1541
11
258.0894
21
-39.9415
0
LINE
8
0
10
258.0894
20
-39.9415
11
256.286
21
-39.9415
0
LINE
8
0
10
256.286
20
-39.9415
11
256.286
21
-41.1099
0
LINE
8
0
10
256.286
20
-41.1099
11
253.238
21
-41.1099
0
LINE
8
0
10
253.238
20
-41.1099
11
253.238
21
-39.9415
0
LINE
8
0
10
253.238
20
-39.9415
11
251.4346
21
-39.9415
0
LINE
8
0
10
251.4346
20
-39.9415
11
251.4346
21
-33.8455
0
LINE
8
0
10
251.4346
20
-33.8455
11
250.571
21
-33.8455
0
LINE
8
0
10
250.571
20
-33.8455
11
250.571
21
-31.0515
0
LINE
8
0
10
250.571
20
-31.0515
11
251.4346
21
-31.0515
0
LINE
8
0
10
251.4346
20
-31.0515
11
251.4346
21
-27.6479
0
LINE
8
0
10
281.9654
20
-27.6479
11
275.3106
21
-27.6479
0
LINE
8
0
10
275.3106
20
-27.6479
11
275.3106
21
-28.4607
0
LINE
8
0
10
275.3106
20
-28.4607
11
266.7
21
-28.4607
0
LINE
8
0
10
266.7
20
-39.1541
11
275.3106
21
-39.1541
0
LINE
8
0
10
275.3106
20
-39.1541
11
275.3106
21
-39.9415
0
LINE
8
0
10
275.3106
20
-39.9415
11
277.114
21
-39.9415
0
LINE
8
0
10
277.114
20
-39.9415
11
277.114
21
-41.1099
0
LINE
8
0
10
277.114
20
-41.1099
11
280.162
21
-41.1099
0
LINE
8
0
10
280.162
20
-41.1099
11
280.162
21
-39.9415
0
LINE
8
0
10
280.162
20
-39.9415
11
281.9654
21
-39.9415
0
LINE
8
0
10
281.9654
20
-39.9415
11
281.9654
21
-33.8455
0
LINE
8
0
10
281.9654
20
-33.8455
11
282.829
21
-33.8455
0
LINE
8
0
10
282.829
20
-33.8455
11
282.829
21
-31.0515
0
LINE
8
0
10
282.829
20
-31.0515
11
281.9654
21
-31.0515
0
LINE
8
0
10
281.9654
20
-31.0515
11
281.9654
21
-27.6479
0
LINE
8
0
10
297.8
20
-26.3375
11
311.8
21
-26.3375
0
LINE
8
0
10
297.8
20
-40.3375
11
311.8
21
-40.3375
0
LINE
8
0
10
297.8
20
-26.3375
11
297.8
21
-40.3375
0
LINE
8
0
10
311.8
20
-26.3375
11
311.8
21
-40.3375
0
LINE
8
0
10
7.2875
20
-45.3875
11
21.2875
21
-45.3875
0
LINE
8
0
10
7.2875
20
-59.3875
11
21.2875
21
-59.3875
0
LINE
8
0
10
7.2875
20
-45.3875
11
7.2875
21
-59.3875
0
LINE
8
0
10
21.2875
20
-45.3875
11
21.2875
21
-59.3875
0
LINE
8
0
10
31.1
20
-45.3875
11
45.1
21
-45.3875
0
LINE
8
0
10
31.1
20
-59.3875
11
45.1
21
-59.3875
0
LINE
8
0
10
31.1
20
-45.3875
11
31.1
21
-59.3875
0
LINE
8
0
10
45.1
20
-45.3875
11
45.1
21
-59.3875
0
LINE
8
0
10
50.15
20
-45.3875
11
64.15
21
-45.3875
0
LINE
8
0
10
50.15
20
-59.3875
11
64.15
21
-59.3875
0
LINE
8
0
10
50.15
20
-45.3875
11
50.15
21
-59.3875
0
LINE
8
0
10
64.15
20
-45.3875
11
64.15
21
-59.3875
0
LINE
8
0
10
69.2
20
-45.3875
11
83.2
21
-45.3875
0
LINE
8
0
10
69.2
20
-59.3875
11
83.2
21
-59.3875
0
LINE
8
0
10
69.2
20
-45.3875
11
69.2
21
-59.3875
0
LINE
8
0
10
83.2
20
-45.3875
11
83.2
21
-59.3875
0
LINE
8
0
10
88.25
20
-45.3875
11
102.25
21
-45.3875
0
LINE
8
0
10
88.25
20
-59.3875
11
102.25
21
-59.3875
0
LINE
8
0
10
88.25
20
-45.3875
11
88.25
21
-59.3875
0
LINE
8
0
10
102.25
20
-45.3875
11
102.25
21
-59.3875
0
LINE
8
0
10
107.3
20
-45.3875
11
121.3
21
-45.3875
0
LINE
8
0
10
107.3
20
-59.3875
11
121.3
21
-59.3875
0
LINE
8
0
10
107.3
20
-45.3875
11
107.3
21
-59.3875
0
LINE
8
0
10
121.3
20
-45.3875
11
121.3
21
-59.3875
0
LINE
8
0
10
126.35
20
-45.3875
11
140.35
21
-45.3875
0
LINE
8
0
10
126.35
20
-59.3875
11
140.35
21
-59.3875
0
LINE
8
0
10
126.35
20
-45.3875
11
126.35
21
-59.3875
0
LINE
8
0
10
140.35
20
-45.3875
11
140.35
21
-59.3875
0
LINE
8
0
10
145.4
20
-45.3875
11
159.4
21
-45.3875
0
LINE
8
0
10
145.4
20
-59.3875
11
159.4
21
-59.3875
0
LINE
8
0
10
145.4
20
-45.3875
11
145.4
21
-59.3875
0
LINE
8
0
10
159.4
20
-45.3875
11
159.4
21
-59.3875
0
LINE
8
0
10
164.45
20
-45.3875
11
178.45
21
-45.3875
0
LINE
8
0
10
164.45
20
-59.3875
11
178.45
21
-59.3875
0
LINE
8
0
10
164.45
20
-45.3875
11
164.45
21
-59.3875
0
LINE
8
0
10
178.45
20
-45.3875
11
178.45
21
-59.3875
0
LINE
8
0
10
183.5
20
-45.3875
11
197.5
21
-45.3875
0
LINE
8
0
10
183.5
20
-59.3875
11
197.5
21
-59.3875
0
LINE
8
0
10
183.5
20
-45.3875
11
183.5
21
-59.3875
0
LINE
8
0
10
197.5
20
-45.3875
11
197.5
21
-59.3875
0
LINE
8
0
10
202.55
20
-45.3875
11
216.55
21
-45.3875
0
LINE
8
0
10
202.55
20
-59.3875
11
216.55
21
-59.3875
0
LINE
8
0
10
202.55
20
-45.3875
11
202.55
21
-59.3875
0
LINE
8
0
10
216.55
20
-45.3875
11
216.55
21
-59.3875
0
LINE
8
0
10
221.6
20
-45.3875
11
235.6
21
-45.3875
0
LINE
8
0
10
221.6
20
-59.3875
11
235.6
21
-59.3875
0
LINE
8
0
10
221.6
20
-45.3875
11
221.6
21
-59.3875
0
LINE
8
0
10
235.6
20
-45.3875
11
235.6
21
-59.3875
0
LINE
8
0
10
240.65
20
-45.3875
11
254.65
21
-45.3875
0
LINE
8
0
10
240.65
20
-59.3875
11
254.65
21
-59.3875
0
LINE
8
0
10
240.65
20
-45.3875
11
240.65
21
-59.3875
0
LINE
8
0
10
254.65
20
-45.3875
11
254.65
21
-59.3875
0
LINE
8
0
10
264.4625
20
-45.3875
11
278.4625
21
-45.3875
0
LINE
8
0
10
264.4625
20
-59.3875
11
278.4625
21
-59.3875
0
LINE
8
0
10
264.4625
20
-45.3875
11
264.4625
21
-59.3875
0
LINE
8
0
10
278.4625
20
-45.3875
11
278.4625
21
-59.3875
0
LINE
8
0
10
297.8
20
-45.3875
11
311.8
21
-45.3875
0
LINE
8
0
10
297.8
20
-59.3875
11
311.8
21
-59.3875
0
LINE
8
0
10
297.8
20
-45.3875
11
297.8
21
-59.3875
0
LINE
8
0
10
311.8
20
-45.3875
11
311.8
21
-59.3875
0
LINE
8
0
10
9.66875
20
-64.4375
11
23.66875
21
-64.4375
0
LINE
8
0
10
9.66875
20
-78.4375
11
23.66875
21
-78.4375
0
LINE
8
0
10
9.66875
20
-64.4375
11
9.66875
21
-78.4375
0
LINE
8
0
10
23.66875
20
-64.4375
11
23.66875
21
-78.4375
0
LINE
8
0
10
35.8625
20
-64.4375
11
49.8625
21
-64.4375
0
LINE
8
0
10
35.8625
20
-78.4375
11
49.8625
21
-78.4375
0
LINE
8
0
10
35.8625
20
-64.4375
11
35.8625
21
-78.4375
0
LINE
8
0
10
49.8625
20
-64.4375
11
49.8625
21
-78.4375
0
LINE
8
0
10
54.9125
20
-64.4375
11
68.9125
21
-64.4375
0
LINE
8
0
10
54.9125
20
-78.4375
11
68.9125
21
-78.4375
0
LINE
8
0
10
54.9125
20
-64.4375
11
54.9125
21
-78.4375
0
LINE
8
0
10
68.9125
20
-64.4375
11
68.9125
21
-78.4375
0
LINE
8
0
10
73.9625
20
-64.4375
11
87.9625
21
-64.4375
0
LINE
8
0
10
73.9625
20
-78.4375
11
87.9625
21
-78.4375
0
LINE
8
0
10
73.9625
20
-64.4375
11
73.9625
21
-78.4375
0
LINE
8
0
10
87.9625
20
-64.4375
11
87.9625
21
-78.4375
0
LINE
8
0
10
93.0125
20
-64.4375
11
107.0125
21
-64.4375
0
LINE
8
0
10
93.0125
20
-78.4375
11
107.0125
21
-78.4375
0
LINE
8
0
10
93.0125
20
-64.4375
11
93.0125
21
-78.4375
0
LINE
8
0
10
107.0125
20
-64.4375
11
107.0125
21
-78.4375
0
LINE
8
0
10
112.0625
20
-64.4375
11
126.0625
21
-64.4375
0
LINE
8
0
10
112.0625
20
-78.4375
11
126.0625
21
-78.4375
0
LINE
8
0
10
112.0625
20
-64.4375
11
112.0625
21
-78.4375
0
LINE
8
0
10
126.0625
20
-64.4375
11
126.0625
21
-78.4375
0
LINE
8
0
10
131.1125
20
-64.4375
11
145.1125
21
-64.4375
0
LINE
8
0
10
131.1125
20
-78.4375
11
145.1125
21
-78.4375
0
LINE
8
0
10
131.1125
20
-64.4375
11
131.1125
21
-78.4375
0
LINE
8
0
10
145.1125
20
-64.4375
11
145.1125
21
-78.4375
0
LINE
8
0
10
150.1625
20
-64.4375
11
164.1625
21
-64.4375
0
LINE
8
0
10
150.1625
20
-78.4375
11
164.1625
21
-78.4375
0
LINE
8
0
10
150.1625
20
-64.4375
11
150.1625
21
-78.4375
0
LINE
8
0
10
164.1625
20
-64.4375
11
164.1625
21
-78.4375
0
LINE
8
0
10
169.2125
20
-64.4375
11
183.2125
21
-64.4375
0
LINE
8
0
10
169.2125
20
-78.4375
11
183.2125
21
-78.4375
0
LINE
8
0
10
169.2125
20
-64.4375
11
169.2125
21
-78.4375
0
LINE
8
0
10
183.2125
20
-64.4375
11
183.2125
21
-78.4375
0
LINE
8
0
10
188.2625
20
-64.4375
11
202.2625
21
-64.4375
0
LINE
8
0
10
188.2625
20
-78.4375
11
202.2625
21
-78.4375
0
LINE
8
0
10
188.2625
20
-64.4375
11
188.2625
21
-78.4375
0
LINE
8
0
10
202.2625
20
-64.4375
11
202.2625
21
-78.4375
0
LINE
8
0
10
207.3125
20
-64.4375
11
221.3125
21
-64.4375
0
LINE
8
0
10
207.3125
20
-78.4375
11
221.3125
21
-78.4375
0
LINE
8
0
10
207.3125
20
-64.4375
11
207.3125
21
-78.4375
0
LINE
8
0
10
221.3125
20
-64.4375
11
221.3125
21
-78.4375
0
LINE
8
0
10
226.3625
20
-64.4375
11
240.3625
21
-64.4375
0
LINE
8
0
10
226.3625
20
-78.4375
11
240.3625
21
-78.4375
0
LINE
8
0
10
226.3625
20
-64.4375
11
226.3625
21
-78.4375
0
LINE
8
0
10
240.3625
20
-64.4375
11
240.3625
21
-78.4375
0
LINE
8
0
10
257.31875
20
-64.4375
11
271.31875
21
-64.4375
0
LINE
8
0
10
257.31875
20
-78.4375
11
271.31875
21
-78.4375
0
LINE
8
0
10
257.31875
20
-64.4375
11
257.31875
21
-78.4375
0
LINE
8
0
10
271.31875
20
-64.4375
11
271.31875
21
-78.4375
0
LINE
8
0
10
249.05335
20
-65.7479
11
255.70815
21
-65.7479
0
LINE
8
0
10
255.70815
20
-65.7479
11
255.70815
21
-66.5607
0
LINE
8
0
10
255.70815
20
-66.5607
11
264.31875
21
-66.5607
0
LINE
8
0
10
264.31875
20
-77.2541
11
255.70815
21
-77.2541
0
LINE
8
0
10
255.70815
20
-77.2541
11
255.70815
21
-78.0415
0
LINE
8
0
10
255.70815
20
-78.0415
11
253.90475
21
-78.0415
0
LINE
8
0
10
253.90475
20
-78.0415
11
253.90475
21
-79.2099
0
LINE
8
0
10
253.90475
20
-79.2099
11
250.85675
21
-79.2099
0
LINE
8
0
10
250.85675
20
-79.2099
11
250.85675
21
-78.0415
0
LINE
8
0
10
250.85675
20
-78.0415
11
249.05335
21
-78.0415
0
LINE
8
0
10
249.05335
20
-78.0415
11
249.05335
21
-71.9455
0
LINE
8
0
10
249.05335
20
-71.9455
11
248.18975
21
-71.9455
0
LINE
8
0
10
248.18975
20
-71.9455
11
248.18975
21
-69.1515
0
LINE
8
0
10
248.18975
20
-69.1515
11
249.05335
21
-69.1515
0
LINE
8
0
10
249.05335
20
-69.1515
11
249.05335
21
-65.7479
0
LINE
8
0
10
279.58415
20
-65.7479
11
272.92935
21
-65.7479
0
LINE
8
0
10
272.92935
20
-65.7479
11
272.92935
21
-66.5607
0
LINE
8
0
10
272.92935
20
-66.5607
11
264.31875
21
-66.5607
0
LINE
8
0
10
264.31875
20
-77.2541
11
272.92935
21
-77.2541
0
LINE
8
0
10
272.92935
20
-77.2541
11
272.92935
21
-78.0415
0
LINE
8
0
10
272.92935
20
-78.0415
11
274.73275
21
-78.0415
0
LINE
8
0
10
274.73275
20
-78.0415
11
274.73275
21
-79.2099
0
LINE
8
0
10
274.73275
20
-79.2099
11
277.78075
21
-79.2099
0
LINE
8
0
10
277.78075
20
-79.2099
11
277.78075
21
-78.0415
0
LINE
8
0
10
277.78075
20
-78.0415
11
279.58415
21
-78.0415
0
LINE
8
0
10
279.58415
20
-78.0415
11
279.58415
21
-71.9455
0
LINE
8
0
10
279.58415
20
-71.9455
11
280.44775
21
-71.9455
0
LINE
8
0
10
280.44775
20
-71.9455
11
280.44775
21
-69.1515
0
LINE
8
0
10
280.44775
20
-69.1515
11
279.58415
21
-69.1515
0
LINE
8
0
10
279.58415
20
-69.1515
11
279.58415
21
-65.7479
0
LINE
8
0
10
297.8
20
-64.4375
11
311.8
21
-64.4375
0
LINE
8
0
10
297.8
20
-78.4375
11
311.8
21
-78.4375
0
LINE
8
0
10
297.8
20
-64.4375
11
297.8
21
-78.4375
0
LINE
8
0
10
311.8
20
-64.4375
11
311.8
21
-78.4375
0
LINE
8
0
10
14.43125
20
-83.4875
11
28.43125
21
-83.4875
0
LINE
8
0
10
14.43125
20
-97.4875
11
28.43125
21
-97.4875
0
LINE
8
0
10
14.43125
20
-83.4875
11
14.43125
21
-97.4875
0
LINE
8
0
10
28.43125
20
-83.4875
11
28.43125
21
-97.4875
0
LINE
8
0
10
6.16585
20
-84.7979
11
12.82065
21
-84.7979
0
LINE
8
0
10
12.82065
20
-84.7979
11
12.82065
21
-85.6107
0
LINE
8
0
10
12.82065
20
-85.6107
11
21.43125
21
-85.6107
0
LINE
8
0
10
21.43125
20
-96.3041
11
12.82065
21
-96.3041
0
LINE
8
0
10
12.82065
20
-96.3041
11
12.82065
21
-97.0915
0
LINE
8
0
10
12.82065
20
-97.0915
11
11.01725
21
-97.0915
0
LINE
8
0
10
11.01725
20
-97.0915
11
11.01725
21
-98.2599
0
LINE
8
0
10
11.01725
20
-98.2599
11
7.96925
21
-98.2599
0
LINE
8
0
10
7.96925
20
-98.2599
11
7.96925
21
-97.0915
0
LINE
8
0
10
7.96925
20
-97.0915
11
6.16585
21
-97.0915
0
LINE
8
0
10
6.16585
20
-97.0915
11
6.16585
21
-90.9955
0
LINE
8
0
10
6.16585
20
-90.9955
11
5.30225
21
-90.9955
0
LINE
8
0
10
5.30225
20
-90.9955
11
5.30225
21
-88.2015
0
LINE
8
0
10
5.30225
20
-88.2015
11
6.16585
21
-88.2015
0
LINE
8
0
10
6.16585
20
-88.2015
11
6.16585
21
-84.7979
0
LINE
8
0
10
36.69665
20
-84.7979
11
30.04185
21
-84.7979
0
LINE
8
0
10
30.04185
20
-84.7979
11
30.04185
21
-85.6107
0
LINE
8
0
10
30.04185
20
-85.6107
11
21.43125
21
-85.6107
0
LINE
8
0
10
21.43125
20
-96.3041
11
30.04185
21
-96.3041
0
LINE
8
0
10
30.04185
20
-96.3041
11
30.04185
21
-97.0915
0
LINE
8
0
10
30.04185
20
-97.0915
11
31.84525
21
-97.0915
0
LINE
8
0
10
31.84525
20
-97.0915
11
31.84525
21
-98.2599
0
LINE
8
0
10
31.84525
20
-98.2599
11
34.89325
21
-98.2599
0
LINE
8
0
10
34.89325
20
-98.2599
11
34.89325
21
-97.0915
0
LINE
8
0
10
34.89325
20
-97.0915
11
36.69665
21
-97.0915
0
LINE
8
0
10
36.69665
20
-97.0915
11
36.69665
21
-90.9955
0
LINE
8
0
10
36.69665
20
-90.9955
11
37.56025
21
-90.9955
0
LINE
8
0
10
37.56025
20
-90.9955
11
37.56025
21
-88.2015
0
LINE
8
0
10
37.56025
20
-88.2015
11
36.69665
21
-88.2015
0
LINE
8
0
10
36.69665
20
-88.2015
11
36.69665
21
-84.7979
0
LINE
8
0
10
45.3875
20
-83.4875
11
59.3875
21
-83.4875
0
LINE
8
0
10
45.3875
20
-97.4875
11
59.3875
21
-97.4875
0
LINE
8
0
10
45.3875
20
-83.4875
11
45.3875
21
-97.4875
0
LINE
8
0
10
59.3875
20
-83.4875
11
59.3875
21
-97.4875
0
LINE
8
0
10
64.4375
20
-83.4875
11
78.4375
21
-83.4875
0
LINE
8
0
10
64.4375
20
-97.4875
11
78.4375
21
-97.4875
0
LINE
8
0
10
64.4375
20
-83.4875
11
64.4375
21
-97.4875
0
LINE
8
0
10
78.4375
20
-83.4875
11
78.4375
21
-97.4875
0
LINE
8
0
10
83.4875
20
-83.4875
11
97.4875
21
-83.4875
0
LINE
8
0
10
83.4875
20
-97.4875
11
97.4875
21
-97.4875
0
LINE
8
0
10
83.4875
20
-83.4875
11
83.4875
21
-97.4875
0
LINE
8
0
10
97.4875
20
-83.4875
11
97.4875
21
-97.4875
0
LINE
8
0
10
102.5375
20
-83.4875
11
116.5375
21
-83.4875
0
LINE
8
0
10
102.5375
20
-97.4875
11
116.5375
21
-97.4875
0
LINE
8
0
10
102.5375
20
-83.4875
11
102.5375
21
-97.4875
0
LINE
8
0
10
116.5375
20
-83.4875
11
116.5375
21
-97.4875
0
LINE
8
0
10
121.5875
20
-83.4875
11
135.5875
21
-83.4875
0
LINE
8
0
10
121.5875
20
-97.4875
11
135.5875
21
-97.4875
0
LINE
8
0
10
121.5875
20
-83.4875
11
121.5875
21
-97.4875
0
LINE
8
0
10
135.5875
20
-83.4875
11
135.5875
21
-97.4875
0
LINE
8
0
10
140.6375
20
-83.4875
11
154.6375
21
-83.4875
0
LINE
8
0
10
140.6375
20
-97.4875
11
154.6375
21
-97.4875
0
LINE
8
0
10
140.6375
20
-83.4875
11
140.6375
21
-97.4875
0
LINE
8
0
10
154.6375
20
-83.4875
11
154.6375
21
-97.4875
0
LINE
8
0
10
159.6875
20
-83.4875
11
173.6875
21
-83.4875
0
LINE
8
0
10
159.6875
20
-97.4875
11
173.6875
21
-97.4875
0
LINE
8
0
10
159.6875
20
-83.4875
11
159.6875
21
-97.4875
0
LINE
8
0
10
173.6875
20
-83.4875
11
173.6875
21
-97.4875
0
LINE
8
0
10
178.7375
20
-83.4875
11
192.7375
21
-83.4875
0
LINE
8
0
10
178.7375
20
-97.4875
11
192.7375
21
-97.4875
0
LINE
8
0
10
178.7375
20
-83.4875
11
178.7375
21
-97.4875
0
LINE
8
0
10
192.7375
20
-83.4875
11
192.7375
21
-97.4875
0
LINE
8
0
10
197.7875
20
-83.4875
11
211.7875
21
-83.4875
0
LINE
8
0
10
197.7875
20
-97.4875
11
211.7875
21
-97.4875
0
LINE
8
0
10
197.7875
20
-83.4875
11
197.7875
21
-97.4875
0
LINE
8
0
10
211.7875
20
-83.4875
11
211.7875
21
-97.4875
0
LINE
8
0
10
216.8375
20
-83.4875
11
230.8375
21
-83.4875
0
LINE
8
0
10
216.8375
20
-97.4875
11
230.8375
21
-97.4875
0
LINE
8
0
10
216.8375
20
-83.4875
11
216.8375
21
-97.4875
0
LINE
8
0
10
230.8375
20
-83.4875
11
230.8375
21
-97.4875
0
LINE
8
0
10
243.03125
20
-83.4875
11
257.03125
21
-83.4875
0
LINE
8
0
10
243.03125
20
-97.4875
11
257.03125
21
-97.4875
0
LINE
8
0
10
243.03125
20
-83.4875
11
243.03125
21
-97.4875
0
LINE
8
0
10
257.03125
20
-83.4875
11
257.03125
21
-97.4875
0
LINE
8
0
10
273.9875
20
-88.25
11
287.9875
21
-88.25
0
LINE
8
0
10
273.9875
20
-102.25
11
287.9875
21
-102.25
0
LINE
8
0
10
273.9875
20
-88.25
11
273.9875
21
-102.25
0
LINE
8
0
10
287.9875
20
-88.25
11
287.9875
21
-102.25
0
LINE
8
0
10
4.90625
20
-102.5375
11
18.90625
21
-102.5375
0
LINE
8
0
10
4.90625
20
-116.5375
11
18.90625
21
-116.5375
0
LINE
8
0
10
4.90625
20
-102.5375
11
4.90625
21
-116.5375
0
LINE
8
0
10
18.90625
20
-102.5375
11
18.90625
21
-116.5375
0
LINE
8
0
10
28.71875
20
-102.5375
11
42.71875
21
-102.5375
0
LINE
8
0
10
28.71875
20
-116.5375
11
42.71875
21
-116.5375
0
LINE
8
0
10
28.71875
20
-102.5375
11
28.71875
21
-116.5375
0
LINE
8
0
10
42.71875
20
-102.5375
11
42.71875
21
-116.5375
0
LINE
8
0
10
52.53125
20
-102.5375
11
66.53125
21
-102.5375
0
LINE
8
0
10
52.53125
20
-116.5375
11
66.53125
21
-116.5375
0
LINE
8
0
10
52.53125
20
-102.5375
11
52.53125
21
-116.5375
0
LINE
8
0
10
66.53125
20
-102.5375
11
66.53125
21
-116.5375
0
LINE
8
0
10
123.96875
20
-102.5375
11
137.96875
21
-102.5375
0
LINE
8
0
10
123.96875
20
-116.5375
11
137.96875
21
-116.5375
0
LINE
8
0
10
123.96875
20
-102.5375
11
123.96875
21
-116.5375
0
LINE
8
0
10
137.96875
20
-102.5375
11
137.96875
21
-116.5375
0
LINE
8
0
10
77.64135
20
-103.8479
11
84.29615
21
-103.8479
0
LINE
8
0
10
84.29615
20
-103.8479
11
84.29615
21
-107.2375
0
LINE
8
0
10
84.29615
20
-107.2375
11
130.96875
21
-107.2375
0
LINE
8
0
10
130.96875
20
-111.8375
11
84.29615
21
-111.8375
0
LINE
8
0
10
84.29615
20
-111.8375
11
84.29615
21
-116.1415
0
LINE
8
0
10
84.29615
20
-116.1415
11
82.49275
21
-116.1415
0
LINE
8
0
10
82.49275
20
-116.1415
11
82.49275
21
-117.3099
0
LINE
8
0
10
82.49275
20
-117.3099
11
79.44475
21
-117.3099
0
LINE
8
0
10
79.44475
20
-117.3099
11
79.44475
21
-116.1415
0
LINE
8
0
10
79.44475
20
-116.1415
11
77.64135
21
-116.1415
0
LINE
8
0
10
77.64135
20
-116.1415
11
77.64135
21
-110.0455
0
LINE
8
0
10
77.64135
20
-110.0455
11
76.77775
21
-110.0455
0
LINE
8
0
10
76.77775
20
-110.0455
11
76.77775
21
-107.2515
0
LINE
8
0
10
76.77775
20
-107.2515
11
77.64135
21
-107.2515
0
LINE
8
0
10
77.64135
20
-107.2515
11
77.64135
21
-103.8479
0
LINE
8
0
10
184.29615
20
-103.8479
11
177.64135
21
-103.8479
0
LINE
8
0
10
177.64135
20
-103.8479
11
177.64135
21
-107.2375
0
LINE
8
0
10
177.64135
20
-107.2375
11
130.96875
21
-107.2375
0
LINE
8
0
10
130.96875
20
-111.8375
11
177.64135
21
-111.8375
0
LINE
8
0
10
177.64135
20
-111.8375
11
177.64135
21
-116.1415
0
LINE
8
0
10
177.64135
20
-116.1415
11
179.44475
21
-116.1415
0
LINE
8
0
10
179.44475
20
-116.1415
11
179.44475
21
-117.3099
0
LINE
8
0
10
179.44475
20
-117.3099
11
182.49275
21
-117.3099
0
LINE
8
0
10
182.49275
20
-117.3099
11
182.49275
21
-116.1415
0
LINE
8
0
10
182.49275
20
-116.1415
11
184.29615
21
-116.1415
0
LINE
8
0
10
184.29615
20
-116.1415
11
184.29615
21
-110.0455
0
LINE
8
0
10
184.29615
20
-110.0455
11
185.15975
21
-110.0455
0
LINE
8
0
10
185.15975
20
-110.0455
11
185.15975
21
-107.2515
0
LINE
8
0
10
185.15975
20
-107.2515
11
184.29615
21
-107.2515
0
LINE
8
0
10
184.29615
20
-107.2515
11
184.29615
21
-103.8479
0
LINE
8
0
10
193.025
20
-102.5375
11
207.025
21
-102.5375
0
LINE
8
0
10
193.025
20
-116.5375
11
207.025
21
-116.5375
0
LINE
8
0
10
193.025
20
-102.5375
11
193.025
21
-116.5375
0
LINE
8
0
10
207.025
20
-102.5375
11
207.025
21
-116.5375
0
LINE
8
0
10
212.075
20
-102.5375
11
226.075
21
-102.5375
0
LINE
8
0
10
212.075
20
-116.5375
11
226.075
21
-116.5375
0
LINE
8
0
10
212.075
20
-102.5375
11
212.075
21
-116.5375
0
LINE
8
0
10
226.075
20
-102.5375
11
226.075
21
-116.5375
0
LINE
8
0
10
231.125
20
-102.5375
11
245.125
21
-102.5375
0
LINE
8
0
10
231.125
20
-116.5375
11
245.125
21
-116.5375
0
LINE
8
0
10
231.125
20
-102.5375
11
231.125
21
-116.5375
0
LINE
8
0
10
245.125
20
-102.5375
11
245.125
21
-116.5375
0
LINE
8
0
10
254.9375
20
-107.3
11
268.9375
21
-107.3
0
LINE
8
0
10
254.9375
20
-121.3
11
268.9375
21
-121.3
0
LINE
8
0
10
254.9375
20
-107.3
11
254.9375
21
-121.3
0
LINE
8
0
10
268.9375
20
-107.3
11
268.9375
21
-121.3
0
LINE
8
0
10
273.9875
20
-107.3
11
287.9875
21
-107.3
0
LINE
8
0
10
273.9875
20
-121.3
11
287.9875
21
-121.3
0
LINE
8
0
10
273.9875
20
-107.3
11
273.9875
21
-121.3
0
LINE
8
0
10
287.9875
20
-107.3
11
287.9875
21
-121.3
0
LINE
8
0
10
293.0375
20
-107.3
11
307.0375
21
-107.3
0
LINE
8
0
10
293.0375
20
-121.3
11
307.0375
21
-121.3
0
LINE
8
0
10
293.0375
20
-107.3
11
293.0375
21
-121.3
0
LINE
8
0
10
307.0375
20
-107.3
11
307.0375
21
-121.3
0
LINE
8
0
10
0
20
-123.825
11
314.325
21
-123.825
0
LINE
8
0
10
0
20
0
11
314.325
21
0
0
LINE
8
0
10
0
20
-123.825
11
0
21
0
0
LINE
8
0
10
314.325
20
-123.825
11
314.325
21
0
0
ENDSEC
0
EOF