M48
; DRILL file {KiCad 9.0.4} date 2025-10-15T10:28:25+0100
; FORMAT={-:-/ absolute / inch / decimal}
; #@! TF.CreationDate,2025-10-15T10:28:25+01:00
; #@! TF.GenerationSoftware,Kicad,Pcbnew,9.0.4
; #@! TF.FileFunction,NonPlated,1,2,NPTH
FMAT,2
INCH
; #@! TA.AperFunction,NonPlated,NPTH,ComponentDrill
T1C0.0394
; #@! TA.AperFunction,NonPlated,NPTH,ComponentDrill
T2C0.0669
; #@! TA.AperFunction,NonPlated,NPTH,ComponentDrill
T3C0.0866
; #@! TA.AperFunction,NonPlated,NPTH,ComponentDrill
T4C0.1570
%
G90
G05
T1
X13.0131Y-4.6171
X13.0131Y-4.932
T2
X1.3Y-1.5
X1.3Y-2.4375
X1.3938Y-5.4375
X1.4875Y-3.1875
X1.5813Y-3.9375
X1.7Y-1.5
X1.7Y-2.4375
X1.7688Y-4.6875
X1.7937Y-5.4375
X1.8875Y-3.1875
X1.9812Y-3.9375
X2.05Y-2.4375
X2.1687Y-4.6875
X2.2375Y-1.5
X2.3312Y-5.4375
X2.425Y-3.1875
X2.45Y-2.4375
X2.6125Y-3.9375
X2.6375Y-1.5
X2.7312Y-5.4375
X2.8Y-2.4375
X2.825Y-3.1875
X2.9875Y-1.5
X2.9875Y-4.6875
X3.0125Y-3.9375
X3.175Y-3.1875
X3.2Y-2.4375
X3.2687Y-5.4375
X3.3625Y-3.9375
X3.3875Y-1.5
X3.3875Y-4.6875
X3.55Y-2.4375
X3.575Y-3.1875
X3.6687Y-5.4375
X3.7375Y-1.5
X3.7375Y-4.6875
X3.7625Y-3.9375
X3.925Y-3.1875
X3.95Y-2.4375
X4.1125Y-3.9375
X4.1375Y-1.5
X4.1375Y-4.6875
X4.3Y-2.4375
X4.325Y-3.1875
X4.4875Y-1.5
X4.4875Y-4.6875
X4.5125Y-3.9375
X4.675Y-3.1875
X4.7Y-2.4375
X4.8625Y-3.9375
X4.8875Y-1.5
X4.8875Y-4.6875
X5.05Y-2.4375
X5.075Y-3.1875
X5.2375Y-4.6875
X5.2625Y-3.9375
X5.425Y-1.5
X5.425Y-3.1875
X5.45Y-2.4375
X5.6125Y-3.9375
X5.6375Y-4.6875
X5.8Y-2.4375
X5.825Y-1.5
X5.825Y-3.1875
X5.9875Y-4.6875
X6.0125Y-3.9375
X6.0812Y-5.4375
X6.175Y-1.5
X6.175Y-3.1875
X6.2Y-2.4375
X6.3625Y-3.9375
X6.3875Y-4.6875
X6.4813Y-5.4375
X6.55Y-2.4375
X6.575Y-1.5
X6.575Y-3.1875
X6.7375Y-4.6875
X6.7625Y-3.9375
X6.925Y-1.5
X6.925Y-3.1875
X6.95Y-2.4375
X7.1125Y-3.9375
X7.1375Y-4.6875
X7.3Y-2.4375
X7.325Y-1.5
X7.325Y-3.1875
X7.4875Y-4.6875
X7.5125Y-3.9375
X7.675Y-1.5
X7.675Y-3.1875
X7.7Y-2.4375
X7.8625Y-3.9375
X7.8875Y-4.6875
X8.05Y-2.4375
X8.075Y-1.5
X8.075Y-3.1875
X8.2375Y-4.6875
X8.2625Y-3.9375
X8.425Y-3.1875
X8.45Y-2.4375
X8.6125Y-1.5
X8.6125Y-3.9375
X8.6375Y-4.6875
X8.8Y-2.4375
X8.8Y-5.4375
X8.825Y-3.1875
X8.9875Y-4.6875
X9.0125Y-1.5
X9.0125Y-3.9375
X9.175Y-3.1875
X9.2Y-2.4375
X9.2Y-5.4375
X9.3625Y-1.5
X9.3625Y-3.9375
X9.3875Y-4.6875
X9.55Y-2.4375
X9.55Y-5.4375
X9.575Y-3.1875
X9.7375Y-4.6875
X9.7625Y-1.5
X9.7625Y-3.9375
X9.925Y-3.1875
X9.95Y-2.4375
X9.95Y-5.4375
X10.1125Y-1.5
X10.1125Y-3.9375
X10.1375Y-4.6875
X10.3Y-2.4375
X10.3Y-5.4375
X10.325Y-3.1875
X10.5125Y-1.5
X10.5125Y-3.9375
X10.675Y-3.1875
X10.7Y-2.4375
X10.7Y-5.4375
X10.7687Y-4.6875
X10.8625Y-1.5
X11.075Y-3.1875
X11.1687Y-4.6875
X11.2375Y-5.625
X11.2625Y-1.5
X11.3312Y-3.9375
X11.425Y-2.4375
X11.6125Y-3.1875
X11.6375Y-5.625
X11.7312Y-3.9375
X11.8Y-1.5
X11.825Y-2.4375
X11.9875Y-4.875
X11.9875Y-5.625
X12.0125Y-3.1875
X12.2Y-1.5
X12.3875Y-4.875
X12.3875Y-5.625
X12.7375Y-5.625
X12.925Y-2.4375
X12.925Y-3.1875
X12.925Y-3.9375
X13.1375Y-5.625
X13.325Y-2.4375
X13.325Y-3.1875
X13.325Y-3.9375
T3
X1.9688Y-1.875
X2.0625Y-5.4375
X2.1562Y-3.1875
X4.5Y-3.1875
X4.875Y-2.4375
X5.0625Y-4.6875
X5.1562Y-1.875
X6.0Y-3.1875
X6.5625Y-4.6875
X8.25Y-3.1779
X8.3438Y-1.875
X9.1875Y-3.9375
X10.5Y-3.1875
X11.5312Y-1.875
X11.6719Y-4.6875
X12.0938Y-2.4375
T4
X1.5Y-5.0125
X2.4375Y-5.0125
X11.0625Y-4.2625
X11.1562Y-2.7625
X12.0Y-4.2625
X12.0937Y-2.7625
M30
