%TF.GenerationSoftware,KiCad,Pcbnew,9.0.4*%
%TF.CreationDate,2025-10-15T10:28:25+01:00*%
%TF.ProjectId,SHEGO75-V2.2,53484547-4f37-4352-9d56-322e322e6b69,rev?*%
%TF.SameCoordinates,Original*%
%TF.FileFunction,Other,Comment*%
%FSLAX46Y46*%
G04 Gerber Fmt 4.6, Leading zero omitted, Abs format (unit mm)*
G04 Created by KiCad (PCBNEW 9.0.4) date 2025-10-15 10:28:25*
%MOMM*%
%LPD*%
G01*
G04 APERTURE LIST*
%ADD10C,0.070000*%
%ADD11C,0.150000*%
G04 APERTURE END LIST*
D10*
X289691125Y-108344276D02*
X289762553Y-108368085D01*
X289762553Y-108368085D02*
X289881601Y-108368085D01*
X289881601Y-108368085D02*
X289929220Y-108344276D01*
X289929220Y-108344276D02*
X289953029Y-108320466D01*
X289953029Y-108320466D02*
X289976839Y-108272847D01*
X289976839Y-108272847D02*
X289976839Y-108225228D01*
X289976839Y-108225228D02*
X289953029Y-108177609D01*
X289953029Y-108177609D02*
X289929220Y-108153799D01*
X289929220Y-108153799D02*
X289881601Y-108129990D01*
X289881601Y-108129990D02*
X289786363Y-108106180D01*
X289786363Y-108106180D02*
X289738744Y-108082371D01*
X289738744Y-108082371D02*
X289714934Y-108058561D01*
X289714934Y-108058561D02*
X289691125Y-108010942D01*
X289691125Y-108010942D02*
X289691125Y-107963323D01*
X289691125Y-107963323D02*
X289714934Y-107915704D01*
X289714934Y-107915704D02*
X289738744Y-107891895D01*
X289738744Y-107891895D02*
X289786363Y-107868085D01*
X289786363Y-107868085D02*
X289905410Y-107868085D01*
X289905410Y-107868085D02*
X289976839Y-107891895D01*
X290119696Y-107868085D02*
X290405410Y-107868085D01*
X290262553Y-108368085D02*
X290262553Y-107868085D01*
X290548267Y-108225228D02*
X290786362Y-108225228D01*
X290500648Y-108368085D02*
X290667314Y-107868085D01*
X290667314Y-107868085D02*
X290833981Y-108368085D01*
X291167314Y-108106180D02*
X291238742Y-108129990D01*
X291238742Y-108129990D02*
X291262552Y-108153799D01*
X291262552Y-108153799D02*
X291286361Y-108201418D01*
X291286361Y-108201418D02*
X291286361Y-108272847D01*
X291286361Y-108272847D02*
X291262552Y-108320466D01*
X291262552Y-108320466D02*
X291238742Y-108344276D01*
X291238742Y-108344276D02*
X291191123Y-108368085D01*
X291191123Y-108368085D02*
X291000647Y-108368085D01*
X291000647Y-108368085D02*
X291000647Y-107868085D01*
X291000647Y-107868085D02*
X291167314Y-107868085D01*
X291167314Y-107868085D02*
X291214933Y-107891895D01*
X291214933Y-107891895D02*
X291238742Y-107915704D01*
X291238742Y-107915704D02*
X291262552Y-107963323D01*
X291262552Y-107963323D02*
X291262552Y-108010942D01*
X291262552Y-108010942D02*
X291238742Y-108058561D01*
X291238742Y-108058561D02*
X291214933Y-108082371D01*
X291214933Y-108082371D02*
X291167314Y-108106180D01*
X291167314Y-108106180D02*
X291000647Y-108106180D01*
X291381600Y-108415704D02*
X291762552Y-108415704D01*
X291881599Y-108368085D02*
X291881599Y-107868085D01*
X291881599Y-107868085D02*
X292048266Y-108225228D01*
X292048266Y-108225228D02*
X292214932Y-107868085D01*
X292214932Y-107868085D02*
X292214932Y-108368085D01*
X292405409Y-107868085D02*
X292738742Y-108368085D01*
X292738742Y-107868085D02*
X292405409Y-108368085D01*
X292810171Y-108415704D02*
X293191123Y-108415704D01*
X293310170Y-108368085D02*
X293310170Y-107868085D01*
X293310170Y-107868085D02*
X293500646Y-107868085D01*
X293500646Y-107868085D02*
X293548265Y-107891895D01*
X293548265Y-107891895D02*
X293572075Y-107915704D01*
X293572075Y-107915704D02*
X293595884Y-107963323D01*
X293595884Y-107963323D02*
X293595884Y-108034752D01*
X293595884Y-108034752D02*
X293572075Y-108082371D01*
X293572075Y-108082371D02*
X293548265Y-108106180D01*
X293548265Y-108106180D02*
X293500646Y-108129990D01*
X293500646Y-108129990D02*
X293310170Y-108129990D01*
X293691123Y-108415704D02*
X294072075Y-108415704D01*
X294167313Y-107915704D02*
X294191122Y-107891895D01*
X294191122Y-107891895D02*
X294238741Y-107868085D01*
X294238741Y-107868085D02*
X294357789Y-107868085D01*
X294357789Y-107868085D02*
X294405408Y-107891895D01*
X294405408Y-107891895D02*
X294429217Y-107915704D01*
X294429217Y-107915704D02*
X294453027Y-107963323D01*
X294453027Y-107963323D02*
X294453027Y-108010942D01*
X294453027Y-108010942D02*
X294429217Y-108082371D01*
X294429217Y-108082371D02*
X294143503Y-108368085D01*
X294143503Y-108368085D02*
X294453027Y-108368085D01*
X294667312Y-108320466D02*
X294691122Y-108344276D01*
X294691122Y-108344276D02*
X294667312Y-108368085D01*
X294667312Y-108368085D02*
X294643503Y-108344276D01*
X294643503Y-108344276D02*
X294667312Y-108320466D01*
X294667312Y-108320466D02*
X294667312Y-108368085D01*
X294881598Y-107915704D02*
X294905407Y-107891895D01*
X294905407Y-107891895D02*
X294953026Y-107868085D01*
X294953026Y-107868085D02*
X295072074Y-107868085D01*
X295072074Y-107868085D02*
X295119693Y-107891895D01*
X295119693Y-107891895D02*
X295143502Y-107915704D01*
X295143502Y-107915704D02*
X295167312Y-107963323D01*
X295167312Y-107963323D02*
X295167312Y-108010942D01*
X295167312Y-108010942D02*
X295143502Y-108082371D01*
X295143502Y-108082371D02*
X294857788Y-108368085D01*
X294857788Y-108368085D02*
X295167312Y-108368085D01*
X295619692Y-107868085D02*
X295381597Y-107868085D01*
X295381597Y-107868085D02*
X295357788Y-108106180D01*
X295357788Y-108106180D02*
X295381597Y-108082371D01*
X295381597Y-108082371D02*
X295429216Y-108058561D01*
X295429216Y-108058561D02*
X295548264Y-108058561D01*
X295548264Y-108058561D02*
X295595883Y-108082371D01*
X295595883Y-108082371D02*
X295619692Y-108106180D01*
X295619692Y-108106180D02*
X295643502Y-108153799D01*
X295643502Y-108153799D02*
X295643502Y-108272847D01*
X295643502Y-108272847D02*
X295619692Y-108320466D01*
X295619692Y-108320466D02*
X295595883Y-108344276D01*
X295595883Y-108344276D02*
X295548264Y-108368085D01*
X295548264Y-108368085D02*
X295429216Y-108368085D01*
X295429216Y-108368085D02*
X295381597Y-108344276D01*
X295381597Y-108344276D02*
X295357788Y-108320466D01*
X296072073Y-108034752D02*
X296072073Y-108368085D01*
X295857787Y-108034752D02*
X295857787Y-108296656D01*
X295857787Y-108296656D02*
X295881597Y-108344276D01*
X295881597Y-108344276D02*
X295929216Y-108368085D01*
X295929216Y-108368085D02*
X296000644Y-108368085D01*
X296000644Y-108368085D02*
X296048263Y-108344276D01*
X296048263Y-108344276D02*
X296072073Y-108320466D01*
X46803829Y-127394260D02*
X46875257Y-127418069D01*
X46875257Y-127418069D02*
X46994305Y-127418069D01*
X46994305Y-127418069D02*
X47041924Y-127394260D01*
X47041924Y-127394260D02*
X47065733Y-127370450D01*
X47065733Y-127370450D02*
X47089543Y-127322831D01*
X47089543Y-127322831D02*
X47089543Y-127275212D01*
X47089543Y-127275212D02*
X47065733Y-127227593D01*
X47065733Y-127227593D02*
X47041924Y-127203783D01*
X47041924Y-127203783D02*
X46994305Y-127179974D01*
X46994305Y-127179974D02*
X46899067Y-127156164D01*
X46899067Y-127156164D02*
X46851448Y-127132355D01*
X46851448Y-127132355D02*
X46827638Y-127108545D01*
X46827638Y-127108545D02*
X46803829Y-127060926D01*
X46803829Y-127060926D02*
X46803829Y-127013307D01*
X46803829Y-127013307D02*
X46827638Y-126965688D01*
X46827638Y-126965688D02*
X46851448Y-126941879D01*
X46851448Y-126941879D02*
X46899067Y-126918069D01*
X46899067Y-126918069D02*
X47018114Y-126918069D01*
X47018114Y-126918069D02*
X47089543Y-126941879D01*
X47232400Y-126918069D02*
X47518114Y-126918069D01*
X47375257Y-127418069D02*
X47375257Y-126918069D01*
X47660971Y-127275212D02*
X47899066Y-127275212D01*
X47613352Y-127418069D02*
X47780018Y-126918069D01*
X47780018Y-126918069D02*
X47946685Y-127418069D01*
X48280018Y-127156164D02*
X48351446Y-127179974D01*
X48351446Y-127179974D02*
X48375256Y-127203783D01*
X48375256Y-127203783D02*
X48399065Y-127251402D01*
X48399065Y-127251402D02*
X48399065Y-127322831D01*
X48399065Y-127322831D02*
X48375256Y-127370450D01*
X48375256Y-127370450D02*
X48351446Y-127394260D01*
X48351446Y-127394260D02*
X48303827Y-127418069D01*
X48303827Y-127418069D02*
X48113351Y-127418069D01*
X48113351Y-127418069D02*
X48113351Y-126918069D01*
X48113351Y-126918069D02*
X48280018Y-126918069D01*
X48280018Y-126918069D02*
X48327637Y-126941879D01*
X48327637Y-126941879D02*
X48351446Y-126965688D01*
X48351446Y-126965688D02*
X48375256Y-127013307D01*
X48375256Y-127013307D02*
X48375256Y-127060926D01*
X48375256Y-127060926D02*
X48351446Y-127108545D01*
X48351446Y-127108545D02*
X48327637Y-127132355D01*
X48327637Y-127132355D02*
X48280018Y-127156164D01*
X48280018Y-127156164D02*
X48113351Y-127156164D01*
X48494304Y-127465688D02*
X48875256Y-127465688D01*
X48994303Y-127418069D02*
X48994303Y-126918069D01*
X48994303Y-126918069D02*
X49160970Y-127275212D01*
X49160970Y-127275212D02*
X49327636Y-126918069D01*
X49327636Y-126918069D02*
X49327636Y-127418069D01*
X49518113Y-126918069D02*
X49851446Y-127418069D01*
X49851446Y-126918069D02*
X49518113Y-127418069D01*
X49922875Y-127465688D02*
X50303827Y-127465688D01*
X50422874Y-127418069D02*
X50422874Y-126918069D01*
X50422874Y-126918069D02*
X50613350Y-126918069D01*
X50613350Y-126918069D02*
X50660969Y-126941879D01*
X50660969Y-126941879D02*
X50684779Y-126965688D01*
X50684779Y-126965688D02*
X50708588Y-127013307D01*
X50708588Y-127013307D02*
X50708588Y-127084736D01*
X50708588Y-127084736D02*
X50684779Y-127132355D01*
X50684779Y-127132355D02*
X50660969Y-127156164D01*
X50660969Y-127156164D02*
X50613350Y-127179974D01*
X50613350Y-127179974D02*
X50422874Y-127179974D01*
X50803827Y-127465688D02*
X51184779Y-127465688D01*
X51280017Y-126965688D02*
X51303826Y-126941879D01*
X51303826Y-126941879D02*
X51351445Y-126918069D01*
X51351445Y-126918069D02*
X51470493Y-126918069D01*
X51470493Y-126918069D02*
X51518112Y-126941879D01*
X51518112Y-126941879D02*
X51541921Y-126965688D01*
X51541921Y-126965688D02*
X51565731Y-127013307D01*
X51565731Y-127013307D02*
X51565731Y-127060926D01*
X51565731Y-127060926D02*
X51541921Y-127132355D01*
X51541921Y-127132355D02*
X51256207Y-127418069D01*
X51256207Y-127418069D02*
X51565731Y-127418069D01*
X51780016Y-127370450D02*
X51803826Y-127394260D01*
X51803826Y-127394260D02*
X51780016Y-127418069D01*
X51780016Y-127418069D02*
X51756207Y-127394260D01*
X51756207Y-127394260D02*
X51780016Y-127370450D01*
X51780016Y-127370450D02*
X51780016Y-127418069D01*
X51994302Y-126965688D02*
X52018111Y-126941879D01*
X52018111Y-126941879D02*
X52065730Y-126918069D01*
X52065730Y-126918069D02*
X52184778Y-126918069D01*
X52184778Y-126918069D02*
X52232397Y-126941879D01*
X52232397Y-126941879D02*
X52256206Y-126965688D01*
X52256206Y-126965688D02*
X52280016Y-127013307D01*
X52280016Y-127013307D02*
X52280016Y-127060926D01*
X52280016Y-127060926D02*
X52256206Y-127132355D01*
X52256206Y-127132355D02*
X51970492Y-127418069D01*
X51970492Y-127418069D02*
X52280016Y-127418069D01*
X52732396Y-126918069D02*
X52494301Y-126918069D01*
X52494301Y-126918069D02*
X52470492Y-127156164D01*
X52470492Y-127156164D02*
X52494301Y-127132355D01*
X52494301Y-127132355D02*
X52541920Y-127108545D01*
X52541920Y-127108545D02*
X52660968Y-127108545D01*
X52660968Y-127108545D02*
X52708587Y-127132355D01*
X52708587Y-127132355D02*
X52732396Y-127156164D01*
X52732396Y-127156164D02*
X52756206Y-127203783D01*
X52756206Y-127203783D02*
X52756206Y-127322831D01*
X52756206Y-127322831D02*
X52732396Y-127370450D01*
X52732396Y-127370450D02*
X52708587Y-127394260D01*
X52708587Y-127394260D02*
X52660968Y-127418069D01*
X52660968Y-127418069D02*
X52541920Y-127418069D01*
X52541920Y-127418069D02*
X52494301Y-127394260D01*
X52494301Y-127394260D02*
X52470492Y-127370450D01*
X53184777Y-127084736D02*
X53184777Y-127418069D01*
X52970491Y-127084736D02*
X52970491Y-127346640D01*
X52970491Y-127346640D02*
X52994301Y-127394260D01*
X52994301Y-127394260D02*
X53041920Y-127418069D01*
X53041920Y-127418069D02*
X53113348Y-127418069D01*
X53113348Y-127418069D02*
X53160967Y-127394260D01*
X53160967Y-127394260D02*
X53184777Y-127370450D01*
X292667611Y-70244308D02*
X292739039Y-70268117D01*
X292739039Y-70268117D02*
X292858087Y-70268117D01*
X292858087Y-70268117D02*
X292905706Y-70244308D01*
X292905706Y-70244308D02*
X292929515Y-70220498D01*
X292929515Y-70220498D02*
X292953325Y-70172879D01*
X292953325Y-70172879D02*
X292953325Y-70125260D01*
X292953325Y-70125260D02*
X292929515Y-70077641D01*
X292929515Y-70077641D02*
X292905706Y-70053831D01*
X292905706Y-70053831D02*
X292858087Y-70030022D01*
X292858087Y-70030022D02*
X292762849Y-70006212D01*
X292762849Y-70006212D02*
X292715230Y-69982403D01*
X292715230Y-69982403D02*
X292691420Y-69958593D01*
X292691420Y-69958593D02*
X292667611Y-69910974D01*
X292667611Y-69910974D02*
X292667611Y-69863355D01*
X292667611Y-69863355D02*
X292691420Y-69815736D01*
X292691420Y-69815736D02*
X292715230Y-69791927D01*
X292715230Y-69791927D02*
X292762849Y-69768117D01*
X292762849Y-69768117D02*
X292881896Y-69768117D01*
X292881896Y-69768117D02*
X292953325Y-69791927D01*
X293096182Y-69768117D02*
X293381896Y-69768117D01*
X293239039Y-70268117D02*
X293239039Y-69768117D01*
X293524753Y-70125260D02*
X293762848Y-70125260D01*
X293477134Y-70268117D02*
X293643800Y-69768117D01*
X293643800Y-69768117D02*
X293810467Y-70268117D01*
X294143800Y-70006212D02*
X294215228Y-70030022D01*
X294215228Y-70030022D02*
X294239038Y-70053831D01*
X294239038Y-70053831D02*
X294262847Y-70101450D01*
X294262847Y-70101450D02*
X294262847Y-70172879D01*
X294262847Y-70172879D02*
X294239038Y-70220498D01*
X294239038Y-70220498D02*
X294215228Y-70244308D01*
X294215228Y-70244308D02*
X294167609Y-70268117D01*
X294167609Y-70268117D02*
X293977133Y-70268117D01*
X293977133Y-70268117D02*
X293977133Y-69768117D01*
X293977133Y-69768117D02*
X294143800Y-69768117D01*
X294143800Y-69768117D02*
X294191419Y-69791927D01*
X294191419Y-69791927D02*
X294215228Y-69815736D01*
X294215228Y-69815736D02*
X294239038Y-69863355D01*
X294239038Y-69863355D02*
X294239038Y-69910974D01*
X294239038Y-69910974D02*
X294215228Y-69958593D01*
X294215228Y-69958593D02*
X294191419Y-69982403D01*
X294191419Y-69982403D02*
X294143800Y-70006212D01*
X294143800Y-70006212D02*
X293977133Y-70006212D01*
X294358086Y-70315736D02*
X294739038Y-70315736D01*
X294858085Y-70268117D02*
X294858085Y-69768117D01*
X294858085Y-69768117D02*
X295024752Y-70125260D01*
X295024752Y-70125260D02*
X295191418Y-69768117D01*
X295191418Y-69768117D02*
X295191418Y-70268117D01*
X295381895Y-69768117D02*
X295715228Y-70268117D01*
X295715228Y-69768117D02*
X295381895Y-70268117D01*
X295786657Y-70315736D02*
X296167609Y-70315736D01*
X296286656Y-70268117D02*
X296286656Y-69768117D01*
X296286656Y-69768117D02*
X296477132Y-69768117D01*
X296477132Y-69768117D02*
X296524751Y-69791927D01*
X296524751Y-69791927D02*
X296548561Y-69815736D01*
X296548561Y-69815736D02*
X296572370Y-69863355D01*
X296572370Y-69863355D02*
X296572370Y-69934784D01*
X296572370Y-69934784D02*
X296548561Y-69982403D01*
X296548561Y-69982403D02*
X296524751Y-70006212D01*
X296524751Y-70006212D02*
X296477132Y-70030022D01*
X296477132Y-70030022D02*
X296286656Y-70030022D01*
X296667609Y-70315736D02*
X297048561Y-70315736D01*
X297143799Y-69815736D02*
X297167608Y-69791927D01*
X297167608Y-69791927D02*
X297215227Y-69768117D01*
X297215227Y-69768117D02*
X297334275Y-69768117D01*
X297334275Y-69768117D02*
X297381894Y-69791927D01*
X297381894Y-69791927D02*
X297405703Y-69815736D01*
X297405703Y-69815736D02*
X297429513Y-69863355D01*
X297429513Y-69863355D02*
X297429513Y-69910974D01*
X297429513Y-69910974D02*
X297405703Y-69982403D01*
X297405703Y-69982403D02*
X297119989Y-70268117D01*
X297119989Y-70268117D02*
X297429513Y-70268117D01*
X297858084Y-69934784D02*
X297858084Y-70268117D01*
X297643798Y-69934784D02*
X297643798Y-70196688D01*
X297643798Y-70196688D02*
X297667608Y-70244308D01*
X297667608Y-70244308D02*
X297715227Y-70268117D01*
X297715227Y-70268117D02*
X297786655Y-70268117D01*
X297786655Y-70268117D02*
X297834274Y-70244308D01*
X297834274Y-70244308D02*
X297858084Y-70220498D01*
D11*
%TO.C,REF\u002A\u002A*%
X126025000Y-61912448D02*
G75*
G02*
X121625000Y-61912448I-2200000J0D01*
G01*
X121625000Y-61912448D02*
G75*
G02*
X126025000Y-61912448I2200000J0D01*
G01*
X54587544Y-138112500D02*
G75*
G02*
X50187544Y-138112500I-2200000J0D01*
G01*
X50187544Y-138112500D02*
G75*
G02*
X54587544Y-138112500I2200000J0D01*
G01*
X268900000Y-80962500D02*
G75*
G02*
X264500000Y-80962500I-2200000J0D01*
G01*
X264500000Y-80962500D02*
G75*
G02*
X268900000Y-80962500I2200000J0D01*
G01*
X309381250Y-61912448D02*
G75*
G02*
X304981250Y-61912448I-2200000J0D01*
G01*
X304981250Y-61912448D02*
G75*
G02*
X309381250Y-61912448I2200000J0D01*
G01*
X295093750Y-47625000D02*
G75*
G02*
X290693750Y-47625000I-2200000J0D01*
G01*
X290693750Y-47625000D02*
G75*
G02*
X295093750Y-47625000I2200000J0D01*
G01*
X52206250Y-47625000D02*
G75*
G02*
X47806250Y-47625000I-2200000J0D01*
G01*
X47806250Y-47625000D02*
G75*
G02*
X52206250Y-47625000I2200000J0D01*
G01*
X154600000Y-80962500D02*
G75*
G02*
X150200000Y-80962500I-2200000J0D01*
G01*
X150200000Y-80962500D02*
G75*
G02*
X154600000Y-80962500I2200000J0D01*
G01*
X168887500Y-119062500D02*
G75*
G02*
X164487500Y-119062500I-2200000J0D01*
G01*
X164487500Y-119062500D02*
G75*
G02*
X168887500Y-119062500I2200000J0D01*
G01*
X214131250Y-47625000D02*
G75*
G02*
X209731250Y-47625000I-2200000J0D01*
G01*
X209731250Y-47625000D02*
G75*
G02*
X214131250Y-47625000I2200000J0D01*
G01*
X298665625Y-119062500D02*
G75*
G02*
X294265625Y-119062500I-2200000J0D01*
G01*
X294265625Y-119062500D02*
G75*
G02*
X298665625Y-119062500I2200000J0D01*
G01*
X235562500Y-100012500D02*
G75*
G02*
X231162500Y-100012500I-2200000J0D01*
G01*
X231162500Y-100012500D02*
G75*
G02*
X235562500Y-100012500I2200000J0D01*
G01*
X130787500Y-119062500D02*
G75*
G02*
X126387500Y-119062500I-2200000J0D01*
G01*
X126387500Y-119062500D02*
G75*
G02*
X130787500Y-119062500I2200000J0D01*
G01*
X211750000Y-80717476D02*
G75*
G02*
X207350000Y-80717476I-2200000J0D01*
G01*
X207350000Y-80717476D02*
G75*
G02*
X211750000Y-80717476I2200000J0D01*
G01*
X56968750Y-80962500D02*
G75*
G02*
X52568750Y-80962500I-2200000J0D01*
G01*
X52568750Y-80962500D02*
G75*
G02*
X56968750Y-80962500I2200000J0D01*
G01*
X116500000Y-80962500D02*
G75*
G02*
X112100000Y-80962500I-2200000J0D01*
G01*
X112100000Y-80962500D02*
G75*
G02*
X116500000Y-80962500I2200000J0D01*
G01*
X133168750Y-47625000D02*
G75*
G02*
X128768750Y-47625000I-2200000J0D01*
G01*
X128768750Y-47625000D02*
G75*
G02*
X133168750Y-47625000I2200000J0D01*
G01*
%TD*%
M02*
