M48
; DRILL file {KiCad 9.0.4} date 2025-10-15T10:28:25+0100
; FORMAT={-:-/ absolute / inch / decimal}
; #@! TF.CreationDate,2025-10-15T10:28:25+01:00
; #@! TF.GenerationSoftware,Kicad,Pcbnew,9.0.4
; #@! TF.FileFunction,Plated,1,2,PTH
FMAT,2
INCH
; #@! TA.AperFunction,Plated,PTH,ViaDrill
T1C0.0079
; #@! TA.AperFunction,Plated,PTH,ViaDrill
T2C0.0118
; #@! TA.AperFunction,Plated,PTH,ComponentDrill
T3C0.0118
; #@! TA.AperFunction,Plated,PTH,ViaDrill
T4C0.0157
; #@! TA.AperFunction,Plated,PTH,ComponentDrill
T5C0.0394
; #@! TA.AperFunction,Plated,PTH,ComponentDrill
T6C0.1024
; #@! TA.AperFunction,Plated,PTH,ComponentDrill
T7C0.1200
%
G90
G05
T1
X12.9961Y-4.248
X12.9961Y-4.2815
X12.9961Y-4.315
X13.0315Y-4.248
X13.0315Y-4.2815
X13.0315Y-4.315
X13.0669Y-4.248
X13.0669Y-4.2815
X13.0669Y-4.315
T2
X1.487Y-5.1445
X1.59Y-2.48
X1.6339Y-5.1378
X1.6732Y-2.208
X1.6742Y-3.7972
X1.6831Y-1.378
X1.69Y-1.56
X1.7Y-5.48
X1.7441Y-5.2057
X1.7618Y-4.3051
X1.7717Y-5.1378
X1.78Y-3.23
X1.8012Y-4.3051
X1.8189Y-4.5187
X1.87Y-3.085
X1.89Y-3.98
X1.9272Y-3.7077
X1.9882Y-4.3051
X2.0138Y-4.3051
X2.0276Y-2.267
X2.08Y-4.73
X2.1051Y-2.7929
X2.122Y-4.4577
X2.1224Y-3.7077
X2.1768Y-2.9557
X2.2736Y-5.1378
X2.31Y-4.3051
X2.35Y-2.48
X2.3586Y-3.7514
X2.3809Y-5.2687
X2.3838Y-2.9851
X2.435Y-2.735
X2.4409Y-2.208
X2.51Y-1.56
X2.563Y-1.3652
X2.61Y-5.48
X2.628Y-4.5177
X2.6614Y-3.7667
X2.6673Y-5.1378
X2.6811Y-5.2087
X2.705Y-2.735
X2.73Y-3.22
X2.7461Y-2.267
X2.805Y-3.07
X2.815Y-5.2087
X2.82Y-2.9577
X2.8445Y-5.1378
X2.8937Y-2.1427
X2.8937Y-4.5177
X2.91Y-3.98
X2.9232Y-5.218
X2.9616Y-3.7067
X2.9626Y-2.5295
X3.0315Y-5.1378
X3.0344Y-4.5177
X3.11Y-2.47
X3.189Y-2.208
X3.19Y-3.0177
X3.26Y-1.56
X3.2677Y-2.874
X3.28Y-4.72
X3.2874Y-5.1378
X3.2963Y-1.373
X3.3002Y-5.2697
X3.3376Y-4.4616
X3.3858Y-3.7657
X3.4154Y-3.6713
X3.4154Y-3.8189
X3.435Y-3.075
X3.4644Y-3.2244
X3.5039Y-3.2441
X3.5138Y-2.8346
X3.5433Y-2.874
X3.5531Y-2.267
X3.57Y-5.46
X3.5925Y-2.9035
X3.5925Y-3.0512
X3.6319Y-2.9577
X3.6417Y-2.1427
X3.6614Y-5.208
X3.67Y-3.97
X3.6811Y-3.2972
X3.7096Y-3.7067
X3.7106Y-3.2677
X3.7106Y-3.435
X3.7205Y-5.1378
X3.7268Y-3.4941
X3.7303Y-3.6122
X3.7445Y-3.5201
X3.7576Y-3.2707
X3.7576Y-3.3159
X3.7795Y-3.248
X3.7795Y-3.2933
X3.7795Y-3.3386
X3.7854Y-4.5187
X3.7894Y-3.6122
X3.8091Y-3.0246
X3.8238Y-3.4301
X3.8317Y-3.1526
X3.84Y-2.48
X3.8484Y-3.3622
X3.8504Y-3.4016
X3.8676Y-3.0246
X3.9055Y-3.0787
X3.9055Y-5.1378
X3.937Y-3.7402
X3.9567Y-2.208
X3.9852Y-3.0236
X4.02Y-1.56
X4.0254Y-3.6797
X4.04Y-4.72
X4.0915Y-4.4577
X4.1201Y-1.3671
X4.1383Y-3.775
X4.1437Y-5.1378
X4.2044Y-3.7072
X4.225Y-2.267
X4.2441Y-3.4102
X4.2894Y-2.9537
X4.311Y-5.2657
X4.335Y-2.89
X4.4094Y-2.1427
X4.42Y-3.97
X4.4577Y-3.7087
X4.4627Y-4.4823
X4.4685Y-5.1378
X4.5965Y-4.855
X4.63Y-2.53
X4.665Y-4.3868
X4.6841Y-3.0148
X4.6949Y-2.208
X4.7047Y-4.8917
X4.7047Y-5.1378
X4.77Y-1.56
X4.79Y-4.73
X4.7933Y-1.3681
X4.8445Y-4.4587
X4.87Y-4.855
X4.905Y-2.89
X4.9104Y-3.7667
X4.955Y-3.635
X4.97Y-3.2205
X5.0Y-5.1378
X5.0492Y-2.267
X5.055Y-3.06
X5.065Y-2.89
X5.11Y-2.9567
X5.1496Y-2.1427
X5.17Y-3.97
X5.2077Y-3.7077
X5.2756Y-4.5236
X5.315Y-2.89
X5.3656Y-2.48
X5.38Y-4.9
X5.4331Y-2.208
X5.4429Y-5.1378
X5.4665Y-3.0197
X5.47Y-4.81
X5.55Y-4.73
X5.5655Y-5.3095
X5.5896Y-4.4557
X5.6575Y-3.7667
X5.675Y-2.89
X5.705Y-3.635
X5.71Y-1.56
X5.7188Y-5.4375
X5.72Y-3.21
X5.7283Y-1.3681
X5.805Y-3.06
X5.8169Y-2.267
X5.82Y-2.89
X5.82Y-4.805
X5.885Y-2.9587
X5.9055Y-2.1427
X5.91Y-3.97
X5.9577Y-3.7077
X5.9882Y-5.4764
X6.0394Y-4.5157
X6.0728Y-5.2677
X6.0906Y-3.635
X6.0906Y-4.3868
X6.106Y-2.516
X6.1713Y-2.208
X6.1713Y-5.1378
X6.1811Y-5.6398
X6.2205Y-3.0197
X6.23Y-5.025
X6.28Y-4.73
X6.3091Y-5.7087
X6.3415Y-4.4587
X6.37Y-2.865
X6.37Y-4.82
X6.37Y-5.48
X6.38Y-3.635
X6.4104Y-3.7687
X6.4449Y-1.9213
X6.4449Y-2.1427
X6.4567Y-3.6417
X6.4567Y-3.8484
X6.47Y-1.56
X6.47Y-3.19
X6.4862Y-1.378
X6.4882Y-5.3071
X6.497Y-5.875
X6.5157Y-2.9035
X6.5157Y-3.0945
X6.5453Y-4.9409
X6.55Y-4.82
X6.555Y-2.865
X6.5576Y-3.0162
X6.565Y-2.267
X6.57Y-5.2077
X6.6063Y-5.311
X6.622Y-4.2835
X6.6437Y-2.9587
X6.6535Y-2.1427
X6.6614Y-3.4488
X6.6732Y-5.8287
X6.6929Y-4.3307
X6.6929Y-5.2815
X6.6929Y-5.689
X6.6998Y-5.5876
X6.7067Y-5.8287
X6.719Y-4.029
X6.752Y-3.5925
X6.7576Y-3.2707
X6.7576Y-3.3159
X6.7579Y-1.6083
X6.7628Y-1.1878
X6.77Y-4.82
X6.7717Y-4.9409
X6.7795Y-3.248
X6.7795Y-3.2933
X6.7795Y-3.3386
X6.7943Y-4.5197
X6.7953Y-3.0128
X6.8228Y-3.4311
X6.8386Y-2.4814
X6.8396Y-3.1457
X6.8504Y-3.3622
X6.873Y-5.8418
X6.8819Y-3.0128
X6.8823Y-3.8346
X6.8878Y-3.3898
X6.9134Y-3.0709
X6.928Y-3.7667
X6.9429Y-5.5551
X6.9587Y-5.2165
X6.9606Y-3.017
X6.9652Y-5.5784
X6.9775Y-2.2225
X6.9783Y-5.7992
X6.9823Y-5.1083
X6.9823Y-5.1634
X6.9844Y-5.3965
X6.9927Y-3.9939
X6.998Y-5.5
X7.025Y-1.91
X7.04Y-4.72
X7.04Y-4.8228
X7.04Y-5.21
X7.0453Y-2.5689
X7.07Y-5.5276
X7.0866Y-1.6732
X7.095Y-5.795
X7.0974Y-4.4587
X7.0995Y-5.502
X7.1063Y-5.3967
X7.1299Y-3.7072
X7.1555Y-5.1142
X7.1602Y-5.6777
X7.1624Y-3.7667
X7.1631Y-5.285
X7.1654Y-4.813
X7.1654Y-4.872
X7.1654Y-4.9665
X7.1788Y-5.5094
X7.186Y-2.0551
X7.1949Y-2.5689
X7.2057Y-2.2667
X7.2057Y-5.4082
X7.2343Y-1.3681
X7.2343Y-2.0079
X7.2343Y-3.2205
X7.24Y-1.56
X7.2569Y-5.5984
X7.2638Y-4.1634
X7.2651Y-5.285
X7.2677Y-5.8976
X7.2697Y-1.8209
X7.2808Y-5.4997
X7.31Y-3.085
X7.313Y-4.813
X7.313Y-4.872
X7.313Y-4.9665
X7.3142Y-4.3154
X7.315Y-4.5004
X7.315Y-5.1142
X7.3151Y-5.7776
X7.3174Y-2.2072
X7.3327Y-4.124
X7.345Y-4.465
X7.3484Y-5.5866
X7.3563Y-3.4056
X7.3607Y-5.6864
X7.3777Y-4.2773
X7.378Y-2.9587
X7.3917Y-2.1378
X7.4Y-5.6864
X7.4016Y-4.0748
X7.41Y-3.97
X7.4138Y-5.6569
X7.4193Y-3.3859
X7.4311Y-5.7402
X7.435Y-4.3858
X7.438Y-5.635
X7.4606Y-4.252
X7.4685Y-5.1122
X7.4688Y-5.5154
X7.475Y-4.595
X7.4803Y-5.3086
X7.4902Y-5.7618
X7.4985Y-5.4997
X7.5183Y-3.3957
X7.5183Y-3.7679
X7.5276Y-5.4839
X7.5295Y-4.2028
X7.5335Y-4.5157
X7.5413Y-5.7953
X7.5518Y-3.3957
X7.5518Y-3.7679
X7.5589Y-5.5716
X7.5644Y-5.3437
X7.5644Y-5.3848
X7.58Y-3.7077
X7.5842Y-4.1442
X7.5984Y-5.1378
X7.6043Y-5.565
X7.628Y-5.3642
X7.63Y-5.03
X7.6378Y-3.0157
X7.64Y-2.47
X7.66Y-3.7077
X7.6624Y-2.249
X7.6784Y-5.4483
X7.6969Y-5.5512
X7.7357Y-5.4865
X7.7371Y-5.1345
X7.7598Y-3.4429
X7.7756Y-5.7785
X7.78Y-4.73
X7.78Y-5.01
X7.7815Y-5.3661
X7.7854Y-2.208
X7.7913Y-3.6693
X7.7942Y-3.4436
X7.8Y-4.1445
X7.8248Y-5.5394
X7.8272Y-3.4439
X7.8386Y-4.813
X7.8473Y-3.6358
X7.8504Y-4.4587
X7.8598Y-3.4448
X7.8681Y-3.7677
X7.89Y-3.3386
X7.8914Y-3.4451
X7.895Y-2.1378
X7.9055Y-2.5689
X7.9134Y-5.7785
X7.925Y-3.445
X7.9389Y-3.8289
X7.9478Y-2.2087
X7.95Y-3.3159
X7.9516Y-3.2216
X7.96Y-1.56
X7.9823Y-1.378
X7.985Y-5.4925
X7.9862Y-5.452
X7.9871Y-5.4205
X8.01Y-3.2933
X8.0295Y-2.9577
X8.055Y-3.2707
X8.0601Y-5.2846
X8.0709Y-2.267
X8.0945Y-3.4411
X8.12Y-3.248
X8.1299Y-3.437
X8.1299Y-5.3543
X8.1398Y-2.1378
X8.1634Y-3.437
X8.1791Y-5.7785
X8.1969Y-3.437
X8.2245Y-4.0196
X8.2323Y-3.437
X8.2539Y-4.5177
X8.2558Y-4.8202
X8.2677Y-3.437
X8.2874Y-2.7844
X8.2929Y-5.4539
X8.2933Y-5.8858
X8.3035Y-4.9665
X8.332Y-5.4492
X8.3465Y-5.5413
X8.3465Y-5.835
X8.3501Y-4.9145
X8.3563Y-3.3957
X8.37Y-2.48
X8.4154Y-5.7785
X8.4331Y-3.7638
X8.4705Y-3.0148
X8.4744Y-4.9665
X8.4941Y-2.208
X8.56Y-4.7
X8.5876Y-4.458
X8.595Y-2.1378
X8.6102Y-5.4957
X8.613Y-5.2764
X8.6654Y-3.7667
X8.69Y-2.77
X8.705Y-3.63
X8.7205Y-5.1575
X8.735Y-3.065
X8.77Y-3.2126
X8.7976Y-2.9577
X8.7992Y-2.267
X8.7992Y-5.2657
X8.8091Y-5.7785
X8.8189Y-4.8031
X8.8189Y-4.9311
X8.8976Y-2.1378
X8.9Y-1.56
X8.9045Y-2.8789
X8.9173Y-1.378
X8.92Y-3.9584
X8.9246Y-5.0467
X8.9557Y-3.7077
X8.9665Y-4.5167
X9.08Y-5.47
X9.14Y-2.47
X9.1506Y-5.2077
X9.1875Y-2.208
X9.2185Y-4.8217
X9.2274Y-3.0167
X9.2421Y-5.2077
X9.29Y-4.73
X9.3406Y-5.2077
X9.3435Y-4.4567
X9.3701Y-2.6427
X9.3717Y-4.972
X9.4104Y-3.7667
X9.455Y-3.63
X9.485Y-2.55
X9.49Y-3.065
X9.5138Y-4.5429
X9.5472Y-2.267
X9.5984Y-5.2717
X9.6112Y-2.6407
X9.6457Y-2.1378
X9.65Y-1.56
X9.6555Y-3.1102
X9.6654Y-1.378
X9.685Y-2.958
X9.69Y-3.96
X9.7224Y-3.7096
X9.7844Y-2.6427
X9.7963Y-4.5246
X9.86Y-5.48
X9.87Y-2.47
X9.9065Y-5.208
X9.9213Y-5.7579
X9.9252Y-2.7697
X9.9606Y-2.208
X9.9606Y-5.1378
X9.9833Y-3.0167
X10.0394Y-5.2667
X10.05Y-4.69
X10.1073Y-4.4567
X10.13Y-2.1378
X10.135Y-2.375
X10.1368Y-2.7697
X10.1575Y-5.1378
X10.1585Y-3.7697
X10.2Y-3.63
X10.235Y-3.08
X10.27Y-3.22
X10.2953Y-2.267
X10.2953Y-4.4567
X10.2976Y-2.9577
X10.3937Y-2.1378
X10.4Y-1.56
X10.4232Y-1.3878
X10.4439Y-4.4803
X10.4576Y-3.7087
X10.4724Y-5.0886
X10.4774Y-4.0404
X10.502Y-4.1902
X10.5031Y-4.1193
X10.5354Y-2.7687
X10.59Y-5.46
X10.61Y-2.47
X10.6496Y-5.5295
X10.6713Y-5.2077
X10.689Y-2.208
X10.7283Y-3.0177
X10.8228Y-4.5187
X10.8233Y-5.7013
X10.8888Y-2.267
X10.9163Y-2.561
X10.9676Y-3.223
X10.997Y-3.0906
X11.0059Y-5.4744
X11.0246Y-2.9567
X11.0561Y-2.562
X11.0594Y-4.7244
X11.1024Y-4.6063
X11.1319Y-5.0098
X11.135Y-4.4636
X11.14Y-1.56
X11.1713Y-1.3878
X11.1811Y-5.0591
X11.2215Y-2.267
X11.2795Y-4.9606
X11.283Y-4.8819
X11.3091Y-4.5276
X11.32Y-3.76
X11.3287Y-5.5217
X11.3514Y-3.2707
X11.3514Y-3.3159
X11.3573Y-2.267
X11.3583Y-3.4882
X11.3583Y-4.4636
X11.3733Y-3.248
X11.3733Y-3.2933
X11.3733Y-3.3386
X11.38Y-4.0717
X11.3819Y-4.122
X11.3839Y-3.7667
X11.4Y-3.3622
X11.4252Y-3.1506
X11.437Y-3.6516
X11.437Y-3.8287
X11.454Y-2.957
X11.4719Y-3.3509
X11.4803Y-4.4803
X11.4935Y-2.9955
X11.4961Y-3.0787
X11.5157Y-2.0562
X11.53Y-5.66
X11.5354Y-3.2283
X11.5591Y-3.2982
X11.5787Y-5.878
X11.5846Y-5.7185
X11.5969Y-4.1339
X11.6Y-2.85
X11.6043Y-3.0709
X11.6142Y-4.498
X11.6181Y-5.878
X11.6299Y-2.7303
X11.6299Y-5.0886
X11.6339Y-3.9744
X11.6437Y-5.2657
X11.6634Y-3.0167
X11.6815Y-4.0894
X11.695Y-3.73
X11.75Y-2.49
X11.752Y-4.2126
X11.8307Y-4.7835
X11.8504Y-5.4557
X11.8622Y-5.1161
X11.8858Y-5.4094
X11.8884Y-5.0987
X11.9193Y-3.0709
X11.9291Y-2.2638
X11.93Y-3.23
X11.9488Y-2.5984
X11.9685Y-5.4557
X11.9783Y-2.9656
X12.035Y-4.3858
X12.0374Y-4.7028
X12.0472Y-3.5177
X12.08Y-1.56
X12.1063Y-1.3878
X12.1152Y-3.5856
X12.1654Y-3.5846
X12.1752Y-3.4744
X12.1781Y-3.065
X12.1785Y-2.949
X12.2008Y-3.2185
X12.2018Y-3.8637
X12.2047Y-3.8189
X12.2272Y-2.3535
X12.27Y-4.9119
X12.2726Y-3.2766
X12.2726Y-3.4016
X12.2736Y-3.1654
X12.2746Y-2.9518
X12.2746Y-3.062
X12.3083Y-2.3547
X12.31Y-5.63
X12.3406Y-4.6486
X12.3425Y-3.6614
X12.3425Y-5.3947
X12.3474Y-2.9466
X12.3474Y-3.063
X12.3474Y-3.1654
X12.3474Y-3.2726
X12.3474Y-3.374
X12.3622Y-3.6122
X12.3701Y-4.7874
X12.3894Y-1.9319
X12.3917Y-1.3091
X12.3917Y-2.7264
X12.4016Y-1.4764
X12.4016Y-1.6634
X12.4016Y-2.1457
X12.4016Y-2.5984
X12.4016Y-3.75
X12.4114Y-2.3622
X12.42Y-3.9
X12.425Y-5.325
X12.4552Y-2.8181
X12.4552Y-3.0447
X12.4552Y-3.2713
X12.4552Y-3.4978
X12.474Y-1.9547
X12.489Y-4.498
X12.5098Y-4.9311
X12.54Y-5.38
X12.565Y-5.8587
X12.6181Y-5.24
X12.6213Y-5.0816
X12.6394Y-4.4587
X12.6394Y-4.5571
X12.6394Y-4.6417
X12.6394Y-4.7283
X12.64Y-4.84
X12.65Y-4.8937
X12.6969Y-4.4587
X12.7Y-4.9449
X12.7091Y-4.2759
X12.7362Y-4.4291
X12.755Y-5.35
X12.7795Y-5.4537
X12.78Y-4.3937
X12.7854Y-1.8953
X12.7854Y-4.065
X12.7864Y-2.6497
X12.7864Y-2.8761
X12.7953Y-1.2776
X12.7953Y-3.6811
X12.7953Y-3.8386
X12.815Y-4.315
X12.815Y-4.3465
X12.815Y-4.8327
X12.8248Y-4.1634
X12.8248Y-4.9409
X12.8346Y-3.435
X12.8425Y-4.4331
X12.8525Y-4.2669
X12.8543Y-3.2185
X12.8543Y-4.7244
X12.8579Y-1.9276
X12.8583Y-2.2677
X12.8736Y-4.5787
X12.874Y-4.1437
X12.8789Y-4.0547
X12.8858Y-4.4961
X12.9141Y-4.8398
X12.9258Y-4.895
X12.9262Y-5.1368
X12.9276Y-1.7831
X12.9528Y-2.8051
X12.9528Y-4.9409
X12.9609Y-4.6408
X12.9626Y-2.6476
X12.9665Y-4.4626
X12.9744Y-5.7806
X12.9774Y-3.0177
X12.9823Y-1.3386
X13.0089Y-5.3169
X13.0451Y-4.5463
X13.0451Y-4.8337
X13.0605Y-4.0254
X13.062Y-4.61
X13.1018Y-1.7927
X13.1201Y-5.2953
X13.125Y-5.2215
X13.128Y-4.1043
X13.1398Y-5.315
X13.1636Y-4.5
X13.1673Y-4.4213
X13.1693Y-4.7933
X13.1748Y-4.1146
X13.1831Y-5.0787
X13.2087Y-4.73
X13.2087Y-4.3525
X13.211Y-4.3211
X13.2144Y-3.9744
X13.2146Y-5.122
X13.22Y-2.48
X13.22Y-3.23
X13.2269Y-4.1851
X13.2283Y-5.8297
X13.2323Y-4.4685
X13.2343Y-4.0522
X13.2362Y-4.2559
X13.2489Y-4.2087
X13.2618Y-4.4469
X13.2657Y-4.2357
X13.2697Y-4.8406
X13.2717Y-2.9587
X13.2717Y-4.1142
X13.2854Y-4.4075
X13.3002Y-3.7077
X13.315Y-4.3228
X13.3169Y-4.7736
X13.3406Y-5.3622
X13.3514Y-4.2461
X13.3858Y-4.2461
T3
X1.5Y-1.4094
X1.5Y-2.3469
X1.5938Y-5.3469
X1.6875Y-3.0969
X1.7812Y-3.8469
X1.9688Y-4.5969
X2.25Y-2.3469
X2.4375Y-1.4094
X2.5312Y-5.3469
X2.625Y-3.0969
X2.8125Y-3.8469
X3.0Y-2.3469
X3.1875Y-1.4094
X3.1875Y-4.5969
X3.375Y-3.0969
X3.4688Y-5.3469
X3.5625Y-3.8469
X3.75Y-2.3469
X3.9375Y-1.4094
X3.9375Y-4.5969
X4.125Y-3.0969
X4.3125Y-3.8469
X4.5Y-2.3469
X4.6875Y-1.4094
X4.6875Y-4.5969
X4.875Y-3.0969
X5.0625Y-3.8469
X5.25Y-2.3469
X5.4375Y-4.5969
X5.625Y-1.4094
X5.625Y-3.0969
X5.8125Y-3.8469
X6.0Y-2.3469
X6.1875Y-4.5969
X6.2812Y-5.3469
X6.375Y-1.4094
X6.375Y-3.0969
X6.5625Y-3.8469
X6.75Y-2.3469
X6.9375Y-4.5969
X7.125Y-1.4094
X7.125Y-3.0969
X7.3125Y-3.8469
X7.5Y-2.3469
X7.6875Y-4.5969
X7.875Y-1.4094
X7.875Y-3.0969
X8.0625Y-3.8469
X8.25Y-2.3469
X8.4375Y-4.5969
X8.625Y-3.0969
X8.8125Y-1.4094
X8.8125Y-3.8469
X9.0Y-2.3469
X9.0Y-5.3469
X9.1875Y-4.5969
X9.375Y-3.0969
X9.5625Y-1.4094
X9.5625Y-3.8469
X9.75Y-2.3469
X9.75Y-5.3469
X9.9375Y-4.5969
X10.125Y-3.0969
X10.3125Y-1.4094
X10.3125Y-3.8469
X10.5Y-2.3469
X10.5Y-5.3469
X10.875Y-3.0969
X10.9688Y-4.5969
X11.0625Y-1.4094
X11.4375Y-5.5344
X11.5312Y-3.8469
X11.625Y-2.3469
X11.8125Y-3.0969
X12.0Y-1.4094
X12.1875Y-4.7844
X12.1875Y-5.5344
X12.9375Y-5.5344
X13.125Y-2.3469
X13.125Y-3.0969
X13.125Y-3.8469
T4
X1.2323Y-1.3031
X1.2323Y-1.9793
X1.3957Y-2.1427
X1.6535Y-2.1427
X1.685Y-2.1427
X2.1535Y-4.3051
X2.1811Y-4.3051
X2.2362Y-2.1427
X2.2677Y-2.1427
X2.4252Y-2.1427
X2.4567Y-2.1427
X3.0Y-2.1427
X3.0394Y-2.1427
X3.189Y-2.1427
X3.189Y-4.3858
X3.2165Y-4.3858
X3.2283Y-2.1427
X3.3622Y-4.3868
X3.3937Y-4.3868
X3.7638Y-2.1427
X3.7913Y-2.1427
X3.8937Y-2.1427
X3.9213Y-2.1427
X3.9449Y-4.3868
X3.9764Y-4.3868
X4.1102Y-4.3868
X4.1417Y-4.3868
X4.45Y-4.3868
X4.4776Y-4.3868
X4.5512Y-2.1427
X4.5787Y-2.1427
X4.685Y-2.1427
X4.7165Y-2.1427
X4.8543Y-4.3868
X4.8819Y-4.3868
X5.2677Y-2.1427
X5.2953Y-2.1427
X5.4291Y-2.1427
X5.4488Y-4.3868
X5.4567Y-2.1427
X5.4764Y-4.3868
X5.6102Y-4.3868
X5.6378Y-4.3868
X5.9921Y-2.1427
X6.0236Y-2.1427
X6.1772Y-2.1427
X6.1811Y-4.3868
X6.2047Y-2.1427
X6.2126Y-4.3868
X6.3504Y-4.3858
X6.378Y-4.3858
X6.6919Y-1.3071
X6.7953Y-2.1427
X6.8268Y-1.31
X6.8268Y-2.1427
X6.9409Y-2.1427
X6.9449Y-4.3858
X6.9685Y-2.1427
X6.9764Y-4.3858
X7.1102Y-4.3858
X7.1457Y-2.1427
X7.1496Y-4.3858
X7.2913Y-2.1378
X7.3307Y-2.1378
X7.6299Y-2.1378
X7.6614Y-2.1378
X7.7795Y-2.1378
X7.811Y-2.1378
X7.8799Y-4.3858
X7.9154Y-4.3858
X8.3228Y-2.1378
X8.3504Y-2.1378
X8.4567Y-4.3858
X8.4843Y-4.3858
X8.4862Y-2.1378
X8.5148Y-2.1378
X8.6299Y-4.3854
X8.6614Y-4.3854
X9.0551Y-2.1378
X9.0827Y-2.1378
X9.189Y-4.3854
X9.2205Y-4.3854
X9.2244Y-2.1378
X9.252Y-2.1378
X9.3622Y-4.3863
X9.3937Y-4.3863
X9.7559Y-2.1378
X9.7953Y-2.1378
X9.9449Y-2.1378
X9.9528Y-4.3863
X9.9764Y-2.1378
X9.9843Y-4.3863
X10.1142Y-4.3873
X10.1417Y-4.3873
X10.2461Y-4.3873
X10.2953Y-4.3873
X10.4714Y-4.3873
X10.5039Y-2.1378
X10.5039Y-4.3858
X10.5354Y-2.1378
X10.6645Y-2.1373
X10.6921Y-2.1378
X10.8819Y-2.1378
X10.9094Y-2.1378
X10.9941Y-4.3858
X11.1417Y-1.939
X11.1811Y-1.939
X11.1909Y-4.3858
X11.3534Y-4.3858
X11.381Y-4.3858
X11.5043Y-4.3858
X11.5346Y-4.3858
X11.7559Y-2.0562
X11.7874Y-2.0562
X11.9331Y-2.0561
X11.9606Y-2.0561
X12.5591Y-4.4366
X12.7343Y-1.3081
X12.7343Y-1.503
X12.7343Y-1.7565
X12.7717Y-2.0561
X12.811Y-2.0561
T5
X6.8251Y-5.89
X6.9251Y-5.89
X7.0251Y-5.89
X7.1251Y-5.89
X7.7251Y-5.89
X7.8251Y-5.89
X12.2824Y-4.005
X12.2824Y-4.105
X12.2824Y-4.205
X12.2824Y-4.305
X13.0266Y-1.2047
X13.0266Y-1.7756
X13.125Y-1.2047
X13.2234Y-1.2047
X13.2234Y-1.7756
T6
X12.9045Y-1.5
X13.3455Y-1.5
T7
X1.5Y-4.4125
X2.4375Y-4.4125
X11.0625Y-3.6625
X11.1562Y-2.1625
X12.0Y-3.6625
X12.0937Y-2.1625
M30
