%TF.GenerationSoftware,KiCad,Pcbnew,9.0.4*%
%TF.CreationDate,2025-10-15T10:28:25+01:00*%
%TF.ProjectId,SHEGO75-V2.2,53484547-4f37-4352-9d56-322e322e6b69,rev?*%
%TF.SameCoordinates,Original*%
%TF.FileFunction,Soldermask,Bot*%
%TF.FilePolarity,Negative*%
%FSLAX46Y46*%
G04 Gerber Fmt 4.6, Leading zero omitted, Abs format (unit mm)*
G04 Created by KiCad (PCBNEW 9.0.4) date 2025-10-15 10:28:25*
%MOMM*%
%LPD*%
G01*
G04 APERTURE LIST*
G04 Aperture macros list*
%AMRoundRect*
0 Rectangle with rounded corners*
0 $1 Rounding radius*
0 $2 $3 $4 $5 $6 $7 $8 $9 X,Y pos of 4 corners*
0 Add a 4 corners polygon primitive as box body*
4,1,4,$2,$3,$4,$5,$6,$7,$8,$9,$2,$3,0*
0 Add four circle primitives for the rounded corners*
1,1,$1+$1,$2,$3*
1,1,$1+$1,$4,$5*
1,1,$1+$1,$6,$7*
1,1,$1+$1,$8,$9*
0 Add four rect primitives between the rounded corners*
20,1,$1+$1,$2,$3,$4,$5,0*
20,1,$1+$1,$4,$5,$6,$7,0*
20,1,$1+$1,$6,$7,$8,$9,0*
20,1,$1+$1,$8,$9,$2,$3,0*%
%AMFreePoly0*
4,1,18,-0.410000,0.593000,-0.403758,0.624380,-0.385983,0.650983,-0.359380,0.668758,-0.328000,0.675000,0.328000,0.675000,0.359380,0.668758,0.385983,0.650983,0.403758,0.624380,0.410000,0.593000,0.410000,-0.593000,0.403758,-0.624380,0.385983,-0.650983,0.359380,-0.668758,0.328000,-0.675000,0.000000,-0.675000,-0.410000,-0.265000,-0.410000,0.593000,-0.410000,0.593000,$1*%
G04 Aperture macros list end*
%ADD10C,0.600000*%
%ADD11RoundRect,0.150000X0.150000X-0.587500X0.150000X0.587500X-0.150000X0.587500X-0.150000X-0.587500X0*%
%ADD12C,1.700000*%
%ADD13C,1.000000*%
%ADD14RoundRect,0.200000X0.200000X0.275000X-0.200000X0.275000X-0.200000X-0.275000X0.200000X-0.275000X0*%
%ADD15C,2.200000*%
%ADD16R,1.700000X1.700000*%
%ADD17C,4.000000*%
%ADD18C,3.987800*%
%ADD19C,1.500000*%
%ADD20C,2.000000*%
%ADD21C,3.200000*%
%ADD22C,1.200000*%
%ADD23RoundRect,0.200000X-0.275000X0.200000X-0.275000X-0.200000X0.275000X-0.200000X0.275000X0.200000X0*%
%ADD24RoundRect,0.250000X0.475000X0.250000X-0.475000X0.250000X-0.475000X-0.250000X0.475000X-0.250000X0*%
%ADD25RoundRect,0.082000X0.593000X-0.328000X0.593000X0.328000X-0.593000X0.328000X-0.593000X-0.328000X0*%
%ADD26FreePoly0,90.000000*%
%ADD27RoundRect,0.140000X-0.140000X-0.170000X0.140000X-0.170000X0.140000X0.170000X-0.140000X0.170000X0*%
%ADD28RoundRect,0.200000X-0.200000X-0.275000X0.200000X-0.275000X0.200000X0.275000X-0.200000X0.275000X0*%
%ADD29RoundRect,0.162500X-0.650000X-0.162500X0.650000X-0.162500X0.650000X0.162500X-0.650000X0.162500X0*%
%ADD30RoundRect,0.082000X-0.593000X0.328000X-0.593000X-0.328000X0.593000X-0.328000X0.593000X0.328000X0*%
%ADD31FreePoly0,270.000000*%
%ADD32RoundRect,0.150000X-0.150000X0.512500X-0.150000X-0.512500X0.150000X-0.512500X0.150000X0.512500X0*%
%ADD33RoundRect,0.140000X0.170000X-0.140000X0.170000X0.140000X-0.170000X0.140000X-0.170000X-0.140000X0*%
%ADD34RoundRect,0.218750X0.381250X-0.218750X0.381250X0.218750X-0.381250X0.218750X-0.381250X-0.218750X0*%
%ADD35RoundRect,0.218750X-0.381250X0.218750X-0.381250X-0.218750X0.381250X-0.218750X0.381250X0.218750X0*%
%ADD36RoundRect,0.200000X0.275000X-0.200000X0.275000X0.200000X-0.275000X0.200000X-0.275000X-0.200000X0*%
%ADD37RoundRect,0.250000X0.457500X0.445000X-0.457500X0.445000X-0.457500X-0.445000X0.457500X-0.445000X0*%
%ADD38R,1.600000X0.700000*%
%ADD39R,1.500000X1.600000*%
%ADD40R,1.800000X1.200000*%
%ADD41R,2.200000X1.200000*%
%ADD42RoundRect,0.050000X0.387500X0.050000X-0.387500X0.050000X-0.387500X-0.050000X0.387500X-0.050000X0*%
%ADD43RoundRect,0.050000X0.050000X0.387500X-0.050000X0.387500X-0.050000X-0.387500X0.050000X-0.387500X0*%
%ADD44R,3.200000X3.200000*%
%ADD45RoundRect,0.140000X0.140000X0.170000X-0.140000X0.170000X-0.140000X-0.170000X0.140000X-0.170000X0*%
%ADD46RoundRect,0.140000X0.021213X-0.219203X0.219203X-0.021213X-0.021213X0.219203X-0.219203X0.021213X0*%
%ADD47RoundRect,0.150000X-0.587500X-0.150000X0.587500X-0.150000X0.587500X0.150000X-0.587500X0.150000X0*%
%ADD48RoundRect,0.250000X-0.262500X-0.450000X0.262500X-0.450000X0.262500X0.450000X-0.262500X0.450000X0*%
%ADD49RoundRect,0.250000X0.250000X-0.475000X0.250000X0.475000X-0.250000X0.475000X-0.250000X-0.475000X0*%
%ADD50RoundRect,0.218750X-0.218750X-0.256250X0.218750X-0.256250X0.218750X0.256250X-0.218750X0.256250X0*%
%ADD51RoundRect,0.140000X-0.170000X0.140000X-0.170000X-0.140000X0.170000X-0.140000X0.170000X0.140000X0*%
%ADD52R,1.400000X1.200000*%
%ADD53RoundRect,0.150000X-0.512500X-0.150000X0.512500X-0.150000X0.512500X0.150000X-0.512500X0.150000X0*%
%ADD54RoundRect,0.075000X-0.521491X0.415425X0.415425X-0.521491X0.521491X-0.415425X-0.415425X0.521491X0*%
%ADD55RoundRect,0.075000X-0.521491X-0.415425X-0.415425X-0.521491X0.521491X0.415425X0.415425X0.521491X0*%
%ADD56RoundRect,0.150000X-0.150000X-0.700000X0.150000X-0.700000X0.150000X0.700000X-0.150000X0.700000X0*%
%ADD57RoundRect,0.250000X-0.250000X-1.100000X0.250000X-1.100000X0.250000X1.100000X-0.250000X1.100000X0*%
%ADD58RoundRect,0.250001X0.624999X-0.462499X0.624999X0.462499X-0.624999X0.462499X-0.624999X-0.462499X0*%
%ADD59RoundRect,0.250000X-0.457500X-0.445000X0.457500X-0.445000X0.457500X0.445000X-0.457500X0.445000X0*%
%ADD60RoundRect,0.250000X0.262500X0.450000X-0.262500X0.450000X-0.262500X-0.450000X0.262500X-0.450000X0*%
%ADD61RoundRect,0.150000X0.150000X-0.512500X0.150000X0.512500X-0.150000X0.512500X-0.150000X-0.512500X0*%
%ADD62RoundRect,0.150000X0.587500X0.150000X-0.587500X0.150000X-0.587500X-0.150000X0.587500X-0.150000X0*%
%ADD63RoundRect,0.250000X0.445000X-0.457500X0.445000X0.457500X-0.445000X0.457500X-0.445000X-0.457500X0*%
%ADD64RoundRect,0.250000X0.450000X-0.262500X0.450000X0.262500X-0.450000X0.262500X-0.450000X-0.262500X0*%
%ADD65RoundRect,0.037500X-0.087500X0.437500X-0.087500X-0.437500X0.087500X-0.437500X0.087500X0.437500X0*%
%ADD66RoundRect,0.037500X-0.437500X0.087500X-0.437500X-0.087500X0.437500X-0.087500X0.437500X0.087500X0*%
%ADD67RoundRect,0.053000X-2.597000X2.597000X-2.597000X-2.597000X2.597000X-2.597000X2.597000X2.597000X0*%
%ADD68RoundRect,0.150000X-0.625000X0.150000X-0.625000X-0.150000X0.625000X-0.150000X0.625000X0.150000X0*%
%ADD69RoundRect,0.250000X-0.650000X0.350000X-0.650000X-0.350000X0.650000X-0.350000X0.650000X0.350000X0*%
G04 APERTURE END LIST*
D10*
%TO.C,*%
X209100000Y-88000000D03*
%TD*%
%TO.C,*%
X208200000Y-88000000D03*
%TD*%
%TO.C,*%
X205600000Y-88000000D03*
%TD*%
%TO.C,*%
X206500000Y-88000000D03*
%TD*%
%TO.C,*%
X207350000Y-88000000D03*
%TD*%
D11*
%TO.C,HE81*%
X328612500Y-141937500D03*
X327662500Y-143812500D03*
X329562500Y-143812500D03*
D12*
X323532500Y-142875000D03*
X333692500Y-142875000D03*
%TD*%
D13*
%TO.C,*%
X329200000Y-72600000D03*
%TD*%
%TO.C,*%
X329250000Y-66200000D03*
%TD*%
D14*
%TO.C,R21*%
X220875000Y-150500000D03*
X219225000Y-150500000D03*
%TD*%
%TO.C,R20*%
X220875000Y-149000000D03*
X219225000Y-149000000D03*
%TD*%
D15*
%TO.C,REF\u002A\u002A*%
X123825000Y-61912448D03*
%TD*%
%TO.C,REF\u002A\u002A*%
X52387544Y-138112500D03*
%TD*%
D16*
%TO.C,SWD2*%
X311972000Y-109347000D03*
D12*
X311972000Y-106807000D03*
X311972000Y-104267000D03*
X311972000Y-101727000D03*
%TD*%
D17*
%TO.C,REF\u002A\u002A*%
X280987254Y-93027416D03*
D18*
X280987254Y-108267416D03*
D17*
X304799754Y-93027416D03*
D18*
X304799754Y-108267416D03*
%TD*%
D15*
%TO.C,REF\u002A\u002A*%
X266700000Y-80962500D03*
%TD*%
D19*
%TO.C,UART1*%
X198757880Y-149606000D03*
X196217880Y-149606000D03*
%TD*%
D20*
%TO.C,ENC1*%
X335875000Y-30600000D03*
X330875000Y-30600000D03*
X333375000Y-30600000D03*
D21*
X327775000Y-38100000D03*
X338975000Y-38100000D03*
D19*
X335875000Y-45100000D03*
X330875000Y-45100000D03*
%TD*%
D15*
%TO.C,REF\u002A\u002A*%
X307181250Y-61912448D03*
%TD*%
%TO.C,REF\u002A\u002A*%
X292893750Y-47625000D03*
%TD*%
%TO.C,REF\u002A\u002A*%
X50006250Y-47625000D03*
%TD*%
D22*
%TO.C,REF\u002A\u002A*%
X136700000Y-130500000D03*
%TD*%
D15*
%TO.C,REF\u002A\u002A*%
X152400000Y-80962500D03*
%TD*%
%TO.C,REF\u002A\u002A*%
X166687500Y-119062500D03*
%TD*%
%TO.C,REF\u002A\u002A*%
X211931250Y-47625000D03*
%TD*%
%TO.C,REF\u002A\u002A*%
X296465625Y-119062500D03*
%TD*%
%TO.C,REF\u002A\u002A*%
X233362500Y-100012500D03*
%TD*%
%TO.C,REF\u002A\u002A*%
X128587500Y-119062500D03*
%TD*%
%TO.C,REF\u002A\u002A*%
X209550000Y-80717476D03*
%TD*%
D17*
%TO.C,REF\u002A\u002A*%
X38099958Y-112077400D03*
D18*
X38099958Y-127317400D03*
D17*
X61912458Y-112077400D03*
D18*
X61912458Y-127317400D03*
%TD*%
D15*
%TO.C,REF\u002A\u002A*%
X54768750Y-80962500D03*
%TD*%
%TO.C,REF\u002A\u002A*%
X114300000Y-80962500D03*
%TD*%
%TO.C,REF\u002A\u002A*%
X130968750Y-47625000D03*
%TD*%
D17*
%TO.C,REF\u002A\u002A*%
X283368502Y-54927448D03*
D18*
X283368502Y-70167448D03*
D17*
X307181002Y-54927448D03*
D18*
X307181002Y-70167448D03*
%TD*%
D23*
%TO.C,C31*%
X336150000Y-102925000D03*
X336150000Y-104575000D03*
%TD*%
D24*
%TO.C,ESP_BOOT1*%
X328325000Y-132750000D03*
X323175000Y-132750000D03*
X328325000Y-134450000D03*
X323175000Y-134450000D03*
%TD*%
D25*
%TO.C,LED79*%
X287787500Y-137045000D03*
X287787500Y-138545000D03*
X293237500Y-137045000D03*
D26*
X293237500Y-138545000D03*
%TD*%
D27*
%TO.C,CA10*%
X323520000Y-55800000D03*
X324480000Y-55800000D03*
%TD*%
D28*
%TO.C,CL67*%
X218987500Y-114712500D03*
X220637500Y-114712500D03*
%TD*%
D12*
%TO.C,HE25*%
X233680000Y-61912500D03*
X223520000Y-61912500D03*
D11*
X229550000Y-62850000D03*
X227650000Y-62850000D03*
X228600000Y-60975000D03*
%TD*%
D28*
%TO.C,CL40*%
X242800000Y-76612500D03*
X244450000Y-76612500D03*
%TD*%
D12*
%TO.C,HE65*%
X181292500Y-119062500D03*
X171132500Y-119062500D03*
D11*
X177162500Y-120000000D03*
X175262500Y-120000000D03*
X176212500Y-118125000D03*
%TD*%
D29*
%TO.C,U4*%
X195144980Y-134239000D03*
X195144980Y-132969000D03*
X195144980Y-131699000D03*
X195144980Y-130429000D03*
X202319980Y-130429000D03*
X202319980Y-131699000D03*
X202319980Y-132969000D03*
X202319980Y-134239000D03*
%TD*%
D30*
%TO.C,LED59*%
X52731250Y-114732500D03*
X52731250Y-113232500D03*
X47281250Y-114732500D03*
D31*
X47281250Y-113232500D03*
%TD*%
D14*
%TO.C,CL19*%
X109625000Y-56062500D03*
X107975000Y-56062500D03*
%TD*%
D30*
%TO.C,AMB4*%
X321812232Y-90344456D03*
X321812232Y-88844456D03*
X316362232Y-90344456D03*
D31*
X316362232Y-88844456D03*
%TD*%
D14*
%TO.C,CL18*%
X90575000Y-56062500D03*
X88925000Y-56062500D03*
%TD*%
%TO.C,CL76*%
X223925000Y-132262500D03*
X222275000Y-132262500D03*
%TD*%
%TO.C,CL28*%
X290600000Y-56062500D03*
X288950000Y-56062500D03*
%TD*%
D30*
%TO.C,LED31*%
X69400000Y-76632500D03*
X69400000Y-75132500D03*
X63950000Y-76632500D03*
D31*
X63950000Y-75132500D03*
%TD*%
D30*
%TO.C,LED67*%
X217037500Y-114732500D03*
X217037500Y-113232500D03*
X211587500Y-114732500D03*
D31*
X211587500Y-113232500D03*
%TD*%
D28*
%TO.C,R23*%
X316116200Y-109668199D03*
X317766200Y-109668199D03*
%TD*%
%TO.C,CL36*%
X166600000Y-76612500D03*
X168250000Y-76612500D03*
%TD*%
D32*
%TO.C,U2*%
X310962001Y-95862500D03*
X311912000Y-95862500D03*
X312861999Y-95862500D03*
X312861999Y-98137500D03*
X310962001Y-98137500D03*
%TD*%
D28*
%TO.C,CL34*%
X128500000Y-76612500D03*
X130150000Y-76612500D03*
%TD*%
D33*
%TO.C,EC2*%
X329500000Y-103730000D03*
X329500000Y-102770000D03*
%TD*%
D28*
%TO.C,C14*%
X310975000Y-93000000D03*
X312625000Y-93000000D03*
%TD*%
D12*
%TO.C,HE1*%
X43180000Y-38100000D03*
X33020000Y-38100000D03*
D11*
X39050000Y-39037500D03*
X37150000Y-39037500D03*
X38100000Y-37162500D03*
%TD*%
D12*
%TO.C,HE59*%
X55086250Y-119062500D03*
X44926250Y-119062500D03*
D11*
X50956250Y-120000000D03*
X49056250Y-120000000D03*
X50006250Y-118125000D03*
%TD*%
D28*
%TO.C,CL43*%
X304712500Y-76612500D03*
X306362500Y-76612500D03*
%TD*%
D14*
%TO.C,CL17*%
X71525000Y-56062500D03*
X69875000Y-56062500D03*
%TD*%
D27*
%TO.C,CA4*%
X323727107Y-90305669D03*
X324687107Y-90305669D03*
%TD*%
%TO.C,CA6*%
X323727107Y-78803780D03*
X324687107Y-78803780D03*
%TD*%
D34*
%TO.C,FB1*%
X180974848Y-62974948D03*
X180974848Y-60849948D03*
%TD*%
D30*
%TO.C,AMB10*%
X321812768Y-55816360D03*
X321812768Y-54316360D03*
X316362768Y-55816360D03*
D31*
X316362768Y-54316360D03*
%TD*%
D25*
%TO.C,LED57*%
X290168750Y-94182500D03*
X290168750Y-95682500D03*
X295618750Y-94182500D03*
D26*
X295618750Y-95682500D03*
%TD*%
D35*
%TO.C,FB2*%
X176801880Y-133555332D03*
X176801880Y-135680332D03*
%TD*%
D12*
%TO.C,HE19*%
X119380000Y-61912500D03*
X109220000Y-61912500D03*
D11*
X115250000Y-62850000D03*
X113350000Y-62850000D03*
X114300000Y-60975000D03*
%TD*%
D14*
%TO.C,C29*%
X174075000Y-135250000D03*
X172425000Y-135250000D03*
%TD*%
D28*
%TO.C,CL9*%
X204700000Y-33750000D03*
X206350000Y-33750000D03*
%TD*%
D30*
%TO.C,LED64*%
X159887500Y-114732500D03*
X159887500Y-113232500D03*
X154437500Y-114732500D03*
D31*
X154437500Y-113232500D03*
%TD*%
D30*
%TO.C,LED10*%
X226562500Y-33770000D03*
X226562500Y-32270000D03*
X221112500Y-33770000D03*
D31*
X221112500Y-32270000D03*
%TD*%
D30*
%TO.C,LED65*%
X178937500Y-114732500D03*
X178937500Y-113232500D03*
X173487500Y-114732500D03*
D31*
X173487500Y-113232500D03*
%TD*%
D36*
%TO.C,C26*%
X185727680Y-149892832D03*
X185727680Y-148242832D03*
%TD*%
D37*
%TO.C,C23*%
X163150500Y-69088000D03*
X160445500Y-69088000D03*
%TD*%
D14*
%TO.C,CL52*%
X181062500Y-94162500D03*
X179412500Y-94162500D03*
%TD*%
D12*
%TO.C,HE67*%
X219392500Y-119062500D03*
X209232500Y-119062500D03*
D11*
X215262500Y-120000000D03*
X213362500Y-120000000D03*
X214312500Y-118125000D03*
%TD*%
D13*
%TO.C,SD1*%
X330532000Y-117273600D03*
X330532000Y-125273600D03*
D38*
X319532000Y-124473600D03*
X319532000Y-123373600D03*
X319532000Y-122273600D03*
X319532000Y-121173600D03*
X319532000Y-120073600D03*
X319532000Y-118973600D03*
X319532000Y-117873600D03*
X319532000Y-116773600D03*
D39*
X320582000Y-129073600D03*
D40*
X320832000Y-114473600D03*
D41*
X330132000Y-129973600D03*
X330132000Y-114473600D03*
D38*
X319532000Y-115673600D03*
%TD*%
D33*
%TO.C,C10*%
X184533880Y-134152032D03*
X184533880Y-133192032D03*
%TD*%
D12*
%TO.C,HE48*%
X114617500Y-100012500D03*
X104457500Y-100012500D03*
D11*
X110487500Y-100950000D03*
X108587500Y-100950000D03*
X109537500Y-99075000D03*
%TD*%
D12*
%TO.C,HE39*%
X224155000Y-80962500D03*
X213995000Y-80962500D03*
D11*
X220025000Y-81900000D03*
X218125000Y-81900000D03*
X219075000Y-80025000D03*
%TD*%
D30*
%TO.C,LED69*%
X255137500Y-114732500D03*
X255137500Y-113232500D03*
X249687500Y-114732500D03*
D31*
X249687500Y-113232500D03*
%TD*%
D12*
%TO.C,HE43*%
X305117500Y-80962500D03*
X294957500Y-80962500D03*
D11*
X300987500Y-81900000D03*
X299087500Y-81900000D03*
X300037500Y-80025000D03*
%TD*%
D30*
%TO.C,LED37*%
X183700000Y-76632500D03*
X183700000Y-75132500D03*
X178250000Y-76632500D03*
D31*
X178250000Y-75132500D03*
%TD*%
D12*
%TO.C,HE80*%
X314642500Y-142875000D03*
X304482500Y-142875000D03*
D11*
X310512500Y-143812500D03*
X308612500Y-143812500D03*
X309562500Y-141937500D03*
%TD*%
D12*
%TO.C,HE28*%
X300355000Y-61912500D03*
X290195000Y-61912500D03*
D11*
X296225000Y-62850000D03*
X294325000Y-62850000D03*
X295275000Y-60975000D03*
%TD*%
D42*
%TO.C,U5*%
X188369280Y-137091148D03*
X188369280Y-137491149D03*
X188369280Y-137891148D03*
X188369280Y-138291148D03*
X188369280Y-138691148D03*
X188369280Y-139091147D03*
X188369280Y-139491148D03*
X188369280Y-139891148D03*
X188369280Y-140291149D03*
X188369280Y-140691148D03*
X188369280Y-141091148D03*
X188369280Y-141491148D03*
X188369280Y-141891147D03*
X188369280Y-142291148D03*
D43*
X187531780Y-143128648D03*
X187131779Y-143128648D03*
X186731780Y-143128648D03*
X186331780Y-143128648D03*
X185931780Y-143128648D03*
X185531781Y-143128648D03*
X185131780Y-143128648D03*
X184731780Y-143128648D03*
X184331779Y-143128648D03*
X183931780Y-143128648D03*
X183531780Y-143128648D03*
X183131780Y-143128648D03*
X182731781Y-143128648D03*
X182331780Y-143128648D03*
D42*
X181494280Y-142291148D03*
X181494280Y-141891147D03*
X181494280Y-141491148D03*
X181494280Y-141091148D03*
X181494280Y-140691148D03*
X181494280Y-140291149D03*
X181494280Y-139891148D03*
X181494280Y-139491148D03*
X181494280Y-139091147D03*
X181494280Y-138691148D03*
X181494280Y-138291148D03*
X181494280Y-137891148D03*
X181494280Y-137491149D03*
X181494280Y-137091148D03*
D43*
X182331780Y-136253648D03*
X182731781Y-136253648D03*
X183131780Y-136253648D03*
X183531780Y-136253648D03*
X183931780Y-136253648D03*
X184331779Y-136253648D03*
X184731780Y-136253648D03*
X185131780Y-136253648D03*
X185531781Y-136253648D03*
X185931780Y-136253648D03*
X186331780Y-136253648D03*
X186731780Y-136253648D03*
X187131779Y-136253648D03*
X187531780Y-136253648D03*
D44*
X184931780Y-139691148D03*
%TD*%
D28*
%TO.C,CL31*%
X71350000Y-76612500D03*
X73000000Y-76612500D03*
%TD*%
D27*
%TO.C,CG3*%
X323520000Y-43900001D03*
X324480000Y-43900001D03*
%TD*%
D12*
%TO.C,HE74*%
X93186250Y-138112500D03*
X83026250Y-138112500D03*
D11*
X89056250Y-139050000D03*
X87156250Y-139050000D03*
X88106250Y-137175000D03*
%TD*%
D12*
%TO.C,HE40*%
X243205000Y-80962500D03*
X233045000Y-80962500D03*
D11*
X239075000Y-81900000D03*
X237175000Y-81900000D03*
X238125000Y-80025000D03*
%TD*%
D23*
%TO.C,R16*%
X295750000Y-130425000D03*
X295750000Y-132075000D03*
%TD*%
D45*
%TO.C,EC3*%
X326460000Y-107000000D03*
X325500000Y-107000000D03*
%TD*%
D28*
%TO.C,CL6*%
X147550000Y-33750000D03*
X149200000Y-33750000D03*
%TD*%
D25*
%TO.C,LED56*%
X259212500Y-94182500D03*
X259212500Y-95682500D03*
X264662500Y-94182500D03*
D26*
X264662500Y-95682500D03*
%TD*%
D30*
%TO.C,AMB3*%
X321812232Y-96099139D03*
X321812232Y-94599139D03*
X316362232Y-96099139D03*
D31*
X316362232Y-94599139D03*
%TD*%
D36*
%TO.C,C20*%
X216900000Y-70300000D03*
X216900000Y-68650000D03*
%TD*%
D27*
%TO.C,C5*%
X191170000Y-140650000D03*
X192130000Y-140650000D03*
%TD*%
D36*
%TO.C,C16*%
X178539480Y-135741632D03*
X178539480Y-134091632D03*
%TD*%
D12*
%TO.C,HE61*%
X105092500Y-119062500D03*
X94932500Y-119062500D03*
D11*
X100962500Y-120000000D03*
X99062500Y-120000000D03*
X100012500Y-118125000D03*
%TD*%
D25*
%TO.C,LED80*%
X306837500Y-137045000D03*
X306837500Y-138545000D03*
X312287500Y-137045000D03*
D26*
X312287500Y-138545000D03*
%TD*%
D12*
%TO.C,HE49*%
X133667500Y-100012500D03*
X123507500Y-100012500D03*
D11*
X129537500Y-100950000D03*
X127637500Y-100950000D03*
X128587500Y-99075000D03*
%TD*%
D12*
%TO.C,HE22*%
X176530000Y-61912500D03*
X166370000Y-61912500D03*
D11*
X172400000Y-62850000D03*
X170500000Y-62850000D03*
X171450000Y-60975000D03*
%TD*%
D14*
%TO.C,CL27*%
X262025000Y-56062500D03*
X260375000Y-56062500D03*
%TD*%
%TO.C,R18*%
X201825000Y-143750000D03*
X200175000Y-143750000D03*
%TD*%
D28*
%TO.C,CL42*%
X280900000Y-76612500D03*
X282550000Y-76612500D03*
%TD*%
D12*
%TO.C,HE53*%
X209867500Y-100012500D03*
X199707500Y-100012500D03*
D11*
X205737500Y-100950000D03*
X203837500Y-100950000D03*
X204787500Y-99075000D03*
%TD*%
D27*
%TO.C,C4*%
X189952500Y-135750000D03*
X190912500Y-135750000D03*
%TD*%
D14*
%TO.C,CL20*%
X128675000Y-56062500D03*
X127025000Y-56062500D03*
%TD*%
D33*
%TO.C,C2*%
X185499080Y-133669432D03*
X185499080Y-132709432D03*
%TD*%
D30*
%TO.C,LED42*%
X278950000Y-76632500D03*
X278950000Y-75132500D03*
X273500000Y-76632500D03*
D31*
X273500000Y-75132500D03*
%TD*%
D25*
%TO.C,LED55*%
X240162500Y-94182500D03*
X240162500Y-95682500D03*
X245612500Y-94182500D03*
D26*
X245612500Y-95682500D03*
%TD*%
D25*
%TO.C,LED47*%
X87762500Y-94182500D03*
X87762500Y-95682500D03*
X93212500Y-94182500D03*
D26*
X93212500Y-95682500D03*
%TD*%
D30*
%TO.C,LED62*%
X121787500Y-114732500D03*
X121787500Y-113232500D03*
X116337500Y-114732500D03*
D31*
X116337500Y-113232500D03*
%TD*%
D12*
%TO.C,HE51*%
X171767500Y-100012500D03*
X161607500Y-100012500D03*
D11*
X167637500Y-100950000D03*
X165737500Y-100950000D03*
X166687500Y-99075000D03*
%TD*%
D14*
%TO.C,R8*%
X174075000Y-137000000D03*
X172425000Y-137000000D03*
%TD*%
D46*
%TO.C,MC1*%
X98060589Y-79339411D03*
X98739411Y-78660589D03*
%TD*%
D28*
%TO.C,CL65*%
X180887500Y-114712500D03*
X182537500Y-114712500D03*
%TD*%
D14*
%TO.C,CL74*%
X83431250Y-132262500D03*
X81781250Y-132262500D03*
%TD*%
D47*
%TO.C,Q3*%
X298562500Y-132200000D03*
X298562500Y-130300000D03*
X300437500Y-131250000D03*
%TD*%
D14*
%TO.C,CL24*%
X204875000Y-56062500D03*
X203225000Y-56062500D03*
%TD*%
%TO.C,CL80*%
X304887500Y-137025000D03*
X303237500Y-137025000D03*
%TD*%
D28*
%TO.C,R15*%
X200155000Y-141750000D03*
X201805000Y-141750000D03*
%TD*%
D30*
%TO.C,LED5*%
X121787500Y-33770000D03*
X121787500Y-32270000D03*
X116337500Y-33770000D03*
D31*
X116337500Y-32270000D03*
%TD*%
D14*
%TO.C,R24*%
X317867800Y-46863000D03*
X316217800Y-46863000D03*
%TD*%
D25*
%TO.C,LED17*%
X73475000Y-56082500D03*
X73475000Y-57582500D03*
X78925000Y-56082500D03*
D26*
X78925000Y-57582500D03*
%TD*%
D12*
%TO.C,HE62*%
X124142500Y-119062500D03*
X113982500Y-119062500D03*
D11*
X120012500Y-120000000D03*
X118112500Y-120000000D03*
X119062500Y-118125000D03*
%TD*%
D27*
%TO.C,CA5*%
X323727107Y-84554724D03*
X324687107Y-84554724D03*
%TD*%
D14*
%TO.C,CL50*%
X142962500Y-94162500D03*
X141312500Y-94162500D03*
%TD*%
D33*
%TO.C,C1*%
X182908280Y-134152032D03*
X182908280Y-133192032D03*
%TD*%
D12*
%TO.C,HE14*%
X309880000Y-38100000D03*
X299720000Y-38100000D03*
D11*
X305750000Y-39037500D03*
X303850000Y-39037500D03*
X304800000Y-37162500D03*
%TD*%
D25*
%TO.C,LED19*%
X111575000Y-56082500D03*
X111575000Y-57582500D03*
X117025000Y-56082500D03*
D26*
X117025000Y-57582500D03*
%TD*%
D28*
%TO.C,CL13*%
X285662500Y-33750000D03*
X287312500Y-33750000D03*
%TD*%
D12*
%TO.C,HE24*%
X214630000Y-61912500D03*
X204470000Y-61912500D03*
D11*
X210500000Y-62850000D03*
X208600000Y-62850000D03*
X209550000Y-60975000D03*
%TD*%
D12*
%TO.C,HE60*%
X86042500Y-119062500D03*
X75882500Y-119062500D03*
D11*
X81912500Y-120000000D03*
X80012500Y-120000000D03*
X80962500Y-118125000D03*
%TD*%
D28*
%TO.C,CL38*%
X204700000Y-76612500D03*
X206350000Y-76612500D03*
%TD*%
%TO.C,CL11*%
X247562500Y-33750000D03*
X249212500Y-33750000D03*
%TD*%
D25*
%TO.C,LED72*%
X37756250Y-132282500D03*
X37756250Y-133782500D03*
X43206250Y-132282500D03*
D26*
X43206250Y-133782500D03*
%TD*%
D30*
%TO.C,LED68*%
X236087500Y-114732500D03*
X236087500Y-113232500D03*
X230637500Y-114732500D03*
D31*
X230637500Y-113232500D03*
%TD*%
D25*
%TO.C,LED73*%
X61568750Y-132282500D03*
X61568750Y-133782500D03*
X67018750Y-132282500D03*
D26*
X67018750Y-133782500D03*
%TD*%
D12*
%TO.C,HE57*%
X297973750Y-100012500D03*
X287813750Y-100012500D03*
D11*
X293843750Y-100950000D03*
X291943750Y-100950000D03*
X292893750Y-99075000D03*
%TD*%
D28*
%TO.C,CL14*%
X309475000Y-33750000D03*
X311125000Y-33750000D03*
%TD*%
D45*
%TO.C,EC5*%
X326453570Y-108379983D03*
X325493570Y-108379983D03*
%TD*%
D28*
%TO.C,CL68*%
X238037500Y-114712500D03*
X239687500Y-114712500D03*
%TD*%
D48*
%TO.C,C12*%
X181713500Y-46228000D03*
X183538500Y-46228000D03*
%TD*%
D28*
%TO.C,CL71*%
X314237500Y-119475000D03*
X315887500Y-119475000D03*
%TD*%
%TO.C,CL44*%
X338050000Y-76612500D03*
X339700000Y-76612500D03*
%TD*%
%TO.C,CL1*%
X42775000Y-33750000D03*
X44425000Y-33750000D03*
%TD*%
D14*
%TO.C,CL58*%
X328700000Y-94162500D03*
X327050000Y-94162500D03*
%TD*%
D28*
%TO.C,CL3*%
X85637500Y-33750000D03*
X87287500Y-33750000D03*
%TD*%
D14*
%TO.C,CL21*%
X147725000Y-56062500D03*
X146075000Y-56062500D03*
%TD*%
D28*
%TO.C,CL66*%
X199937500Y-114712500D03*
X201587500Y-114712500D03*
%TD*%
%TO.C,CL4*%
X104687500Y-33750000D03*
X106337500Y-33750000D03*
%TD*%
D25*
%TO.C,LED26*%
X244925000Y-56082500D03*
X244925000Y-57582500D03*
X250375000Y-56082500D03*
D26*
X250375000Y-57582500D03*
%TD*%
D28*
%TO.C,CL61*%
X104687500Y-114712500D03*
X106337500Y-114712500D03*
%TD*%
D12*
%TO.C,HE44*%
X338455000Y-80962500D03*
X328295000Y-80962500D03*
D11*
X334325000Y-81900000D03*
X332425000Y-81900000D03*
X333375000Y-80025000D03*
%TD*%
D14*
%TO.C,R7*%
X174075000Y-140250000D03*
X172425000Y-140250000D03*
%TD*%
D28*
%TO.C,CL30*%
X47537500Y-76612500D03*
X49187500Y-76612500D03*
%TD*%
D30*
%TO.C,LED39*%
X221800000Y-76632500D03*
X221800000Y-75132500D03*
X216350000Y-76632500D03*
D31*
X216350000Y-75132500D03*
%TD*%
D49*
%TO.C,EN1*%
X338850000Y-138825000D03*
X338850000Y-133675000D03*
X337150000Y-138825000D03*
X337150000Y-133675000D03*
%TD*%
D14*
%TO.C,CL16*%
X52475000Y-56062500D03*
X50825000Y-56062500D03*
%TD*%
D12*
%TO.C,HE12*%
X267017500Y-38100000D03*
X256857500Y-38100000D03*
D11*
X262887500Y-39037500D03*
X260987500Y-39037500D03*
X261937500Y-37162500D03*
%TD*%
D25*
%TO.C,LED76*%
X225875000Y-132282500D03*
X225875000Y-133782500D03*
X231325000Y-132282500D03*
D26*
X231325000Y-133782500D03*
%TD*%
D27*
%TO.C,CA9*%
X323727107Y-61550945D03*
X324687107Y-61550945D03*
%TD*%
D23*
%TO.C,R1*%
X184483080Y-129062432D03*
X184483080Y-130712432D03*
%TD*%
D25*
%TO.C,LED18*%
X92525000Y-56082500D03*
X92525000Y-57582500D03*
X97975000Y-56082500D03*
D26*
X97975000Y-57582500D03*
%TD*%
D30*
%TO.C,LED14*%
X307525000Y-33770000D03*
X307525000Y-32270000D03*
X302075000Y-33770000D03*
D31*
X302075000Y-32270000D03*
%TD*%
D30*
%TO.C,LED4*%
X102737500Y-33770000D03*
X102737500Y-32270000D03*
X97287500Y-33770000D03*
D31*
X97287500Y-32270000D03*
%TD*%
D30*
%TO.C,GLO2*%
X321812232Y-38849968D03*
X321812232Y-37349968D03*
X316362232Y-38849968D03*
D31*
X316362232Y-37349968D03*
%TD*%
D30*
%TO.C,LED66*%
X197987500Y-114732500D03*
X197987500Y-113232500D03*
X192537500Y-114732500D03*
D31*
X192537500Y-113232500D03*
%TD*%
D25*
%TO.C,LED75*%
X156818750Y-132282500D03*
X156818750Y-133782500D03*
X162268750Y-132282500D03*
D26*
X162268750Y-133782500D03*
%TD*%
D12*
%TO.C,HE15*%
X43180000Y-61912500D03*
X33020000Y-61912500D03*
D11*
X39050000Y-62850000D03*
X37150000Y-62850000D03*
X38100000Y-60975000D03*
%TD*%
D12*
%TO.C,HE34*%
X128905000Y-80962500D03*
X118745000Y-80962500D03*
D11*
X124775000Y-81900000D03*
X122875000Y-81900000D03*
X123825000Y-80025000D03*
%TD*%
D25*
%TO.C,LED27*%
X263975000Y-56082500D03*
X263975000Y-57582500D03*
X269425000Y-56082500D03*
D26*
X269425000Y-57582500D03*
%TD*%
D30*
%TO.C,LED8*%
X183700000Y-33770000D03*
X183700000Y-32270000D03*
X178250000Y-33770000D03*
D31*
X178250000Y-32270000D03*
%TD*%
D30*
%TO.C,AMB9*%
X321812232Y-61571043D03*
X321812232Y-60071043D03*
X316362232Y-61571043D03*
D31*
X316362232Y-60071043D03*
%TD*%
D14*
%TO.C,CL81*%
X323937500Y-137025000D03*
X322287500Y-137025000D03*
%TD*%
D27*
%TO.C,CG1*%
X323520000Y-33900000D03*
X324480000Y-33900000D03*
%TD*%
D25*
%TO.C,LED23*%
X187775000Y-56082500D03*
X187775000Y-57582500D03*
X193225000Y-56082500D03*
D26*
X193225000Y-57582500D03*
%TD*%
D25*
%TO.C,LED53*%
X202062500Y-94182500D03*
X202062500Y-95682500D03*
X207512500Y-94182500D03*
D26*
X207512500Y-95682500D03*
%TD*%
D36*
%TO.C,C19*%
X218400000Y-70300000D03*
X218400000Y-68650000D03*
%TD*%
D12*
%TO.C,HE33*%
X109855000Y-80962500D03*
X99695000Y-80962500D03*
D11*
X105725000Y-81900000D03*
X103825000Y-81900000D03*
X104775000Y-80025000D03*
%TD*%
D36*
%TO.C,C15*%
X309025000Y-98087000D03*
X309025000Y-96437000D03*
%TD*%
D12*
%TO.C,HE63*%
X143192500Y-119062500D03*
X133032500Y-119062500D03*
D11*
X139062500Y-120000000D03*
X137162500Y-120000000D03*
X138112500Y-118125000D03*
%TD*%
D25*
%TO.C,LED49*%
X125862500Y-94182500D03*
X125862500Y-95682500D03*
X131312500Y-94182500D03*
D26*
X131312500Y-95682500D03*
%TD*%
D12*
%TO.C,HE71*%
X314642500Y-123825000D03*
X304482500Y-123825000D03*
D11*
X310512500Y-124762500D03*
X308612500Y-124762500D03*
X309562500Y-122887500D03*
%TD*%
D25*
%TO.C,LED48*%
X106812500Y-94182500D03*
X106812500Y-95682500D03*
X112262500Y-94182500D03*
D26*
X112262500Y-95682500D03*
%TD*%
D12*
%TO.C,HE10*%
X228917500Y-38100000D03*
X218757500Y-38100000D03*
D11*
X224787500Y-39037500D03*
X222887500Y-39037500D03*
X223837500Y-37162500D03*
%TD*%
D50*
%TO.C,D1*%
X337912499Y-104500000D03*
X339487501Y-104500000D03*
%TD*%
D30*
%TO.C,LED11*%
X245612500Y-33770000D03*
X245612500Y-32270000D03*
X240162500Y-33770000D03*
D31*
X240162500Y-32270000D03*
%TD*%
D27*
%TO.C,CG2*%
X323520000Y-38900000D03*
X324480000Y-38900000D03*
%TD*%
D12*
%TO.C,HE37*%
X186055000Y-80962500D03*
X175895000Y-80962500D03*
D11*
X181925000Y-81900000D03*
X180025000Y-81900000D03*
X180975000Y-80025000D03*
%TD*%
D28*
%TO.C,CL70*%
X283281250Y-114712500D03*
X284931250Y-114712500D03*
%TD*%
D12*
%TO.C,HE77*%
X252730000Y-138112500D03*
X242570000Y-138112500D03*
D11*
X248600000Y-139050000D03*
X246700000Y-139050000D03*
X247650000Y-137175000D03*
%TD*%
D27*
%TO.C,CA3*%
X323727107Y-96056614D03*
X324687107Y-96056614D03*
%TD*%
D51*
%TO.C,C3*%
X183997420Y-145520000D03*
X183997420Y-146480000D03*
%TD*%
D12*
%TO.C,HE16*%
X62230000Y-61912500D03*
X52070000Y-61912500D03*
D11*
X58100000Y-62850000D03*
X56200000Y-62850000D03*
X57150000Y-60975000D03*
%TD*%
D14*
%TO.C,C27*%
X174075000Y-141750000D03*
X172425000Y-141750000D03*
%TD*%
D28*
%TO.C,R4*%
X194926880Y-127750000D03*
X196576880Y-127750000D03*
%TD*%
D14*
%TO.C,CL77*%
X242975000Y-132262500D03*
X241325000Y-132262500D03*
%TD*%
%TO.C,CL78*%
X262025000Y-132262500D03*
X260375000Y-132262500D03*
%TD*%
D52*
%TO.C,Y1*%
X187523280Y-147935032D03*
X189723280Y-147935032D03*
X189723280Y-149635032D03*
X187523280Y-149635032D03*
%TD*%
D30*
%TO.C,LED9*%
X202750000Y-33770000D03*
X202750000Y-32270000D03*
X197300000Y-33770000D03*
D31*
X197300000Y-32270000D03*
%TD*%
D30*
%TO.C,LED13*%
X283712500Y-33770000D03*
X283712500Y-32270000D03*
X278262500Y-33770000D03*
D31*
X278262500Y-32270000D03*
%TD*%
D25*
%TO.C,LED16*%
X54425000Y-56082500D03*
X54425000Y-57582500D03*
X59875000Y-56082500D03*
D26*
X59875000Y-57582500D03*
%TD*%
D28*
%TO.C,R5*%
X212925000Y-140750000D03*
X214575000Y-140750000D03*
%TD*%
D25*
%TO.C,LED28*%
X292550000Y-56082500D03*
X292550000Y-57582500D03*
X298000000Y-56082500D03*
D26*
X298000000Y-57582500D03*
%TD*%
D12*
%TO.C,HE23*%
X195579840Y-61912448D03*
X185419840Y-61912448D03*
D11*
X191449840Y-62849948D03*
X189549840Y-62849948D03*
X190499840Y-60974948D03*
%TD*%
D14*
%TO.C,CL29*%
X328700000Y-56062500D03*
X327050000Y-56062500D03*
%TD*%
D30*
%TO.C,AMB7*%
X321812232Y-73080408D03*
X321812232Y-71580408D03*
X316362232Y-73080408D03*
D31*
X316362232Y-71580408D03*
%TD*%
D25*
%TO.C,LED20*%
X130625000Y-56082500D03*
X130625000Y-57582500D03*
X136075000Y-56082500D03*
D26*
X136075000Y-57582500D03*
%TD*%
D30*
%TO.C,LED30*%
X45587500Y-76632500D03*
X45587500Y-75132500D03*
X40137500Y-76632500D03*
D31*
X40137500Y-75132500D03*
%TD*%
D25*
%TO.C,LED22*%
X168725000Y-56082500D03*
X168725000Y-57582500D03*
X174175000Y-56082500D03*
D26*
X174175000Y-57582500D03*
%TD*%
D12*
%TO.C,HE31*%
X71755000Y-80962500D03*
X61595000Y-80962500D03*
D11*
X67625000Y-81900000D03*
X65725000Y-81900000D03*
X66675000Y-80025000D03*
%TD*%
D30*
%TO.C,LED40*%
X240850000Y-76632500D03*
X240850000Y-75132500D03*
X235400000Y-76632500D03*
D31*
X235400000Y-75132500D03*
%TD*%
D12*
%TO.C,HE42*%
X281305000Y-80962500D03*
X271145000Y-80962500D03*
D11*
X277175000Y-81900000D03*
X275275000Y-81900000D03*
X276225000Y-80025000D03*
%TD*%
D14*
%TO.C,CL25*%
X223925000Y-56062500D03*
X222275000Y-56062500D03*
%TD*%
D12*
%TO.C,HE79*%
X295592500Y-142875000D03*
X285432500Y-142875000D03*
D11*
X291462500Y-143812500D03*
X289562500Y-143812500D03*
X290512500Y-141937500D03*
%TD*%
D23*
%TO.C,C25*%
X191518880Y-148242832D03*
X191518880Y-149892832D03*
%TD*%
D12*
%TO.C,HE76*%
X233680000Y-138112500D03*
X223520000Y-138112500D03*
D11*
X229550000Y-139050000D03*
X227650000Y-139050000D03*
X228600000Y-137175000D03*
%TD*%
D14*
%TO.C,CL23*%
X185825000Y-56062500D03*
X184175000Y-56062500D03*
%TD*%
D12*
%TO.C,HE9*%
X205105000Y-38100000D03*
X194945000Y-38100000D03*
D11*
X200975000Y-39037500D03*
X199075000Y-39037500D03*
X200025000Y-37162500D03*
%TD*%
D30*
%TO.C,LED7*%
X164650000Y-33770000D03*
X164650000Y-32270000D03*
X159200000Y-33770000D03*
D31*
X159200000Y-32270000D03*
%TD*%
D36*
%TO.C,C21*%
X215392000Y-70300000D03*
X215392000Y-68650000D03*
%TD*%
D28*
%TO.C,CL5*%
X123737500Y-33750000D03*
X125387500Y-33750000D03*
%TD*%
D53*
%TO.C,U1*%
X181560572Y-50159998D03*
X181560572Y-49209999D03*
X181560572Y-48260000D03*
X183835572Y-48260000D03*
X183835572Y-50159998D03*
%TD*%
D14*
%TO.C,CL22*%
X166775000Y-56062500D03*
X165125000Y-56062500D03*
%TD*%
D36*
%TO.C,R2*%
X182983080Y-130712432D03*
X182983080Y-129062432D03*
%TD*%
D28*
%TO.C,CL7*%
X166600000Y-33750000D03*
X168250000Y-33750000D03*
%TD*%
D30*
%TO.C,LED2*%
X64637500Y-33770000D03*
X64637500Y-32270000D03*
X59187500Y-33770000D03*
D31*
X59187500Y-32270000D03*
%TD*%
D14*
%TO.C,CL26*%
X242975000Y-56062500D03*
X241325000Y-56062500D03*
%TD*%
D54*
%TO.C,MUX3*%
X283243374Y-84726212D03*
X283596928Y-84372658D03*
X283950481Y-84019105D03*
X284304035Y-83665551D03*
X284657588Y-83311998D03*
X285011141Y-82958445D03*
X285364695Y-82604891D03*
X285718248Y-82251338D03*
X286071801Y-81897785D03*
X286425355Y-81544231D03*
X286778908Y-81190678D03*
X287132462Y-80837124D03*
D55*
X289130038Y-80837124D03*
X289483592Y-81190678D03*
X289837145Y-81544231D03*
X290190699Y-81897785D03*
X290544252Y-82251338D03*
X290897805Y-82604891D03*
X291251359Y-82958445D03*
X291604912Y-83311998D03*
X291958465Y-83665551D03*
X292312019Y-84019105D03*
X292665572Y-84372658D03*
X293019126Y-84726212D03*
D54*
X293019126Y-86723788D03*
X292665572Y-87077342D03*
X292312019Y-87430895D03*
X291958465Y-87784449D03*
X291604912Y-88138002D03*
X291251359Y-88491555D03*
X290897805Y-88845109D03*
X290544252Y-89198662D03*
X290190699Y-89552215D03*
X289837145Y-89905769D03*
X289483592Y-90259322D03*
X289130038Y-90612876D03*
D55*
X287132462Y-90612876D03*
X286778908Y-90259322D03*
X286425355Y-89905769D03*
X286071801Y-89552215D03*
X285718248Y-89198662D03*
X285364695Y-88845109D03*
X285011141Y-88491555D03*
X284657588Y-88138002D03*
X284304035Y-87784449D03*
X283950481Y-87430895D03*
X283596928Y-87077342D03*
X283243374Y-86723788D03*
%TD*%
D12*
%TO.C,HE55*%
X247967500Y-100012500D03*
X237807500Y-100012500D03*
D11*
X243837500Y-100950000D03*
X241937500Y-100950000D03*
X242887500Y-99075000D03*
%TD*%
D12*
%TO.C,HE2*%
X66992500Y-38100000D03*
X56832500Y-38100000D03*
D11*
X62862500Y-39037500D03*
X60962500Y-39037500D03*
X61912500Y-37162500D03*
%TD*%
D30*
%TO.C,LED43*%
X302762500Y-76632500D03*
X302762500Y-75132500D03*
X297312500Y-76632500D03*
D31*
X297312500Y-75132500D03*
%TD*%
D30*
%TO.C,LED61*%
X102737500Y-114732500D03*
X102737500Y-113232500D03*
X97287500Y-114732500D03*
D31*
X97287500Y-113232500D03*
%TD*%
D12*
%TO.C,HE36*%
X167005000Y-80962500D03*
X156845000Y-80962500D03*
D11*
X162875000Y-81900000D03*
X160975000Y-81900000D03*
X161925000Y-80025000D03*
%TD*%
D12*
%TO.C,HE13*%
X286067500Y-38100000D03*
X275907500Y-38100000D03*
D11*
X281937500Y-39037500D03*
X280037500Y-39037500D03*
X280987500Y-37162500D03*
%TD*%
D28*
%TO.C,CL59*%
X54681250Y-114712500D03*
X56331250Y-114712500D03*
%TD*%
D30*
%TO.C,AMB2*%
X321812232Y-101853821D03*
X321812232Y-100353821D03*
X316362232Y-101853821D03*
D31*
X316362232Y-100353821D03*
%TD*%
D12*
%TO.C,HE58*%
X338455000Y-100012500D03*
X328295000Y-100012500D03*
D11*
X334325000Y-100950000D03*
X332425000Y-100950000D03*
X333375000Y-99075000D03*
%TD*%
D12*
%TO.C,HE38*%
X205105000Y-80962500D03*
X194945000Y-80962500D03*
D11*
X200975000Y-81900000D03*
X199075000Y-81900000D03*
X200025000Y-80025000D03*
%TD*%
D46*
%TO.C,MC3*%
X174460589Y-79139411D03*
X175139411Y-78460589D03*
%TD*%
D12*
%TO.C,HE26*%
X252730000Y-61912500D03*
X242570000Y-61912500D03*
D11*
X248600000Y-62850000D03*
X246700000Y-62850000D03*
X247650000Y-60975000D03*
%TD*%
D12*
%TO.C,HE56*%
X267017500Y-100012500D03*
X256857500Y-100012500D03*
D11*
X262887500Y-100950000D03*
X260987500Y-100950000D03*
X261937500Y-99075000D03*
%TD*%
D30*
%TO.C,LED38*%
X202750000Y-76632500D03*
X202750000Y-75132500D03*
X197300000Y-76632500D03*
D31*
X197300000Y-75132500D03*
%TD*%
D14*
%TO.C,CL73*%
X59618750Y-132262500D03*
X57968750Y-132262500D03*
%TD*%
D30*
%TO.C,LED34*%
X126550000Y-76632500D03*
X126550000Y-75132500D03*
X121100000Y-76632500D03*
D31*
X121100000Y-75132500D03*
%TD*%
D14*
%TO.C,R9*%
X339075000Y-126000000D03*
X337425000Y-126000000D03*
%TD*%
D12*
%TO.C,HE47*%
X95567500Y-100012500D03*
X85407500Y-100012500D03*
D11*
X91437500Y-100950000D03*
X89537500Y-100950000D03*
X90487500Y-99075000D03*
%TD*%
D28*
%TO.C,C18*%
X201077043Y-136369223D03*
X202727043Y-136369223D03*
%TD*%
D46*
%TO.C,MC2*%
X290860589Y-79339411D03*
X291539411Y-78660589D03*
%TD*%
D30*
%TO.C,AMB1*%
X321812232Y-107608504D03*
X321812232Y-106108504D03*
X316362232Y-107608504D03*
D31*
X316362232Y-106108504D03*
%TD*%
D12*
%TO.C,HE64*%
X162242500Y-119062500D03*
X152082500Y-119062500D03*
D11*
X158112500Y-120000000D03*
X156212500Y-120000000D03*
X157162500Y-118125000D03*
%TD*%
D12*
%TO.C,HE68*%
X238442500Y-119062500D03*
X228282500Y-119062500D03*
D11*
X234312500Y-120000000D03*
X232412500Y-120000000D03*
X233362500Y-118125000D03*
%TD*%
D56*
%TO.C,JST1*%
X189518601Y-71983600D03*
X190768600Y-71983600D03*
X192018600Y-71983601D03*
X193268600Y-71983600D03*
X194518599Y-71983600D03*
D57*
X187668600Y-68783600D03*
X196368600Y-68783600D03*
%TD*%
D25*
%TO.C,LED78*%
X263975000Y-132282500D03*
X263975000Y-133782500D03*
X269425000Y-132282500D03*
D26*
X269425000Y-133782500D03*
%TD*%
D30*
%TO.C,LED32*%
X88450000Y-76632500D03*
X88450000Y-75132500D03*
X83000000Y-76632500D03*
D31*
X83000000Y-75132500D03*
%TD*%
D27*
%TO.C,EC4*%
X335770000Y-108850000D03*
X336730000Y-108850000D03*
%TD*%
D28*
%TO.C,CL60*%
X85637500Y-114712500D03*
X87287500Y-114712500D03*
%TD*%
D12*
%TO.C,HE32*%
X90805000Y-80962500D03*
X80645000Y-80962500D03*
D11*
X86675000Y-81900000D03*
X84775000Y-81900000D03*
X85725000Y-80025000D03*
%TD*%
D14*
%TO.C,CL51*%
X162012500Y-94162500D03*
X160362500Y-94162500D03*
%TD*%
D30*
%TO.C,LED41*%
X259900000Y-76632500D03*
X259900000Y-75132500D03*
X254450000Y-76632500D03*
D31*
X254450000Y-75132500D03*
%TD*%
D12*
%TO.C,HE41*%
X262255000Y-80962500D03*
X252095000Y-80962500D03*
D11*
X258125000Y-81900000D03*
X256225000Y-81900000D03*
X257175000Y-80025000D03*
%TD*%
D12*
%TO.C,HE70*%
X283686250Y-119062500D03*
X273526250Y-119062500D03*
D11*
X279556250Y-120000000D03*
X277656250Y-120000000D03*
X278606250Y-118125000D03*
%TD*%
D30*
%TO.C,LED3*%
X83687500Y-33770000D03*
X83687500Y-32270000D03*
X78237500Y-33770000D03*
D31*
X78237500Y-32270000D03*
%TD*%
D14*
%TO.C,CL54*%
X219162500Y-94162500D03*
X217512500Y-94162500D03*
%TD*%
D30*
%TO.C,LED1*%
X40825000Y-33770000D03*
X40825000Y-32270000D03*
X35375000Y-33770000D03*
D31*
X35375000Y-32270000D03*
%TD*%
D58*
%TO.C,F1*%
X180974848Y-70543692D03*
X180974848Y-67568692D03*
%TD*%
D30*
%TO.C,LED12*%
X264662500Y-33770000D03*
X264662500Y-32270000D03*
X259212500Y-33770000D03*
D31*
X259212500Y-32270000D03*
%TD*%
D28*
%TO.C,R14*%
X338175000Y-111000000D03*
X339825000Y-111000000D03*
%TD*%
D45*
%TO.C,C7*%
X177770000Y-140400000D03*
X178730000Y-140400000D03*
%TD*%
D28*
%TO.C,CL69*%
X257087500Y-114712500D03*
X258737500Y-114712500D03*
%TD*%
D36*
%TO.C,R12*%
X324750000Y-105825000D03*
X324750000Y-104175000D03*
%TD*%
D14*
%TO.C,CL75*%
X154868750Y-132262500D03*
X153218750Y-132262500D03*
%TD*%
D30*
%TO.C,AMB8*%
X321812232Y-67325725D03*
X321812232Y-65825725D03*
X316362232Y-67325725D03*
D31*
X316362232Y-65825725D03*
%TD*%
D28*
%TO.C,CL2*%
X66587500Y-33750000D03*
X68237500Y-33750000D03*
%TD*%
D12*
%TO.C,HE75*%
X164623750Y-138112500D03*
X154463750Y-138112500D03*
D11*
X160493750Y-139050000D03*
X158593750Y-139050000D03*
X159543750Y-137175000D03*
%TD*%
D12*
%TO.C,HE78*%
X271780000Y-138112500D03*
X261620000Y-138112500D03*
D11*
X267650000Y-139050000D03*
X265750000Y-139050000D03*
X266700000Y-137175000D03*
%TD*%
D28*
%TO.C,CL41*%
X261850000Y-76612500D03*
X263500000Y-76612500D03*
%TD*%
D54*
%TO.C,MUX1*%
X90362124Y-84726212D03*
X90715678Y-84372658D03*
X91069231Y-84019105D03*
X91422785Y-83665551D03*
X91776338Y-83311998D03*
X92129891Y-82958445D03*
X92483445Y-82604891D03*
X92836998Y-82251338D03*
X93190551Y-81897785D03*
X93544105Y-81544231D03*
X93897658Y-81190678D03*
X94251212Y-80837124D03*
D55*
X96248788Y-80837124D03*
X96602342Y-81190678D03*
X96955895Y-81544231D03*
X97309449Y-81897785D03*
X97663002Y-82251338D03*
X98016555Y-82604891D03*
X98370109Y-82958445D03*
X98723662Y-83311998D03*
X99077215Y-83665551D03*
X99430769Y-84019105D03*
X99784322Y-84372658D03*
X100137876Y-84726212D03*
D54*
X100137876Y-86723788D03*
X99784322Y-87077342D03*
X99430769Y-87430895D03*
X99077215Y-87784449D03*
X98723662Y-88138002D03*
X98370109Y-88491555D03*
X98016555Y-88845109D03*
X97663002Y-89198662D03*
X97309449Y-89552215D03*
X96955895Y-89905769D03*
X96602342Y-90259322D03*
X96248788Y-90612876D03*
D55*
X94251212Y-90612876D03*
X93897658Y-90259322D03*
X93544105Y-89905769D03*
X93190551Y-89552215D03*
X92836998Y-89198662D03*
X92483445Y-88845109D03*
X92129891Y-88491555D03*
X91776338Y-88138002D03*
X91422785Y-87784449D03*
X91069231Y-87430895D03*
X90715678Y-87077342D03*
X90362124Y-86723788D03*
%TD*%
D30*
%TO.C,AMB5*%
X321812232Y-84589773D03*
X321812232Y-83089773D03*
X316362232Y-84589773D03*
D31*
X316362232Y-83089773D03*
%TD*%
D12*
%TO.C,HE72*%
X45561250Y-138112500D03*
X35401250Y-138112500D03*
D11*
X41431250Y-139050000D03*
X39531250Y-139050000D03*
X40481250Y-137175000D03*
%TD*%
D14*
%TO.C,CL56*%
X257262500Y-94162500D03*
X255612500Y-94162500D03*
%TD*%
D30*
%TO.C,GLO1*%
X321812232Y-43849968D03*
X321812232Y-42349968D03*
X316362232Y-43849968D03*
D31*
X316362232Y-42349968D03*
%TD*%
D14*
%TO.C,CL48*%
X104862500Y-94162500D03*
X103212500Y-94162500D03*
%TD*%
D12*
%TO.C,HE54*%
X228917500Y-100012500D03*
X218757500Y-100012500D03*
D11*
X224787500Y-100950000D03*
X222887500Y-100950000D03*
X223837500Y-99075000D03*
%TD*%
D12*
%TO.C,HE30*%
X47942500Y-80962500D03*
X37782500Y-80962500D03*
D11*
X43812500Y-81900000D03*
X41912500Y-81900000D03*
X42862500Y-80025000D03*
%TD*%
D12*
%TO.C,HE18*%
X100330000Y-61912500D03*
X90170000Y-61912500D03*
D11*
X96200000Y-62850000D03*
X94300000Y-62850000D03*
X95250000Y-60975000D03*
%TD*%
D45*
%TO.C,C8*%
X179130000Y-137075632D03*
X178170000Y-137075632D03*
%TD*%
D12*
%TO.C,HE6*%
X147955000Y-38100000D03*
X137795000Y-38100000D03*
D11*
X143825000Y-39037500D03*
X141925000Y-39037500D03*
X142875000Y-37162500D03*
%TD*%
D30*
%TO.C,LED36*%
X164650000Y-76632500D03*
X164650000Y-75132500D03*
X159200000Y-76632500D03*
D31*
X159200000Y-75132500D03*
%TD*%
D14*
%TO.C,CL47*%
X85812500Y-94162500D03*
X84162500Y-94162500D03*
%TD*%
D28*
%TO.C,R19*%
X337475000Y-106300000D03*
X339125000Y-106300000D03*
%TD*%
D14*
%TO.C,CL46*%
X66762500Y-94162500D03*
X65112500Y-94162500D03*
%TD*%
D25*
%TO.C,LED29*%
X330650000Y-56082500D03*
X330650000Y-57582500D03*
X336100000Y-56082500D03*
D26*
X336100000Y-57582500D03*
%TD*%
D25*
%TO.C,LED46*%
X68712500Y-94182500D03*
X68712500Y-95682500D03*
X74162500Y-94182500D03*
D26*
X74162500Y-95682500D03*
%TD*%
D14*
%TO.C,CL72*%
X35806250Y-132262500D03*
X34156250Y-132262500D03*
%TD*%
D28*
%TO.C,R17*%
X337825000Y-103000000D03*
X339475000Y-103000000D03*
%TD*%
D12*
%TO.C,HE73*%
X69373750Y-138112500D03*
X59213750Y-138112500D03*
D11*
X65243750Y-139050000D03*
X63343750Y-139050000D03*
X64293750Y-137175000D03*
%TD*%
D28*
%TO.C,R11*%
X337425000Y-131750000D03*
X339075000Y-131750000D03*
%TD*%
D25*
%TO.C,LED25*%
X225875000Y-56082500D03*
X225875000Y-57582500D03*
X231325000Y-56082500D03*
D26*
X231325000Y-57582500D03*
%TD*%
D30*
%TO.C,LED71*%
X312287500Y-119495000D03*
X312287500Y-117995000D03*
X306837500Y-119495000D03*
D31*
X306837500Y-117995000D03*
%TD*%
D59*
%TO.C,C24*%
X170147500Y-50250000D03*
X172852500Y-50250000D03*
%TD*%
D30*
%TO.C,LED33*%
X107500000Y-76632500D03*
X107500000Y-75132500D03*
X102050000Y-76632500D03*
D31*
X102050000Y-75132500D03*
%TD*%
D30*
%TO.C,LED60*%
X83687500Y-114732500D03*
X83687500Y-113232500D03*
X78237500Y-114732500D03*
D31*
X78237500Y-113232500D03*
%TD*%
D12*
%TO.C,HE27*%
X271780000Y-61912500D03*
X261620000Y-61912500D03*
D11*
X267650000Y-62850000D03*
X265750000Y-62850000D03*
X266700000Y-60975000D03*
%TD*%
D25*
%TO.C,LED77*%
X244925000Y-132282500D03*
X244925000Y-133782500D03*
X250375000Y-132282500D03*
D26*
X250375000Y-133782500D03*
%TD*%
D12*
%TO.C,HE4*%
X105092500Y-38100000D03*
X94932500Y-38100000D03*
D11*
X100962500Y-39037500D03*
X99062500Y-39037500D03*
X100012500Y-37162500D03*
%TD*%
D16*
%TO.C,SWD1*%
X180977880Y-149606000D03*
D12*
X178437880Y-149606000D03*
X175897880Y-149606000D03*
X173357880Y-149606000D03*
%TD*%
D25*
%TO.C,LED45*%
X42518750Y-94182500D03*
X42518750Y-95682500D03*
X47968750Y-94182500D03*
D26*
X47968750Y-95682500D03*
%TD*%
D25*
%TO.C,LED81*%
X325887500Y-137045000D03*
X325887500Y-138545000D03*
X331337500Y-137045000D03*
D26*
X331337500Y-138545000D03*
%TD*%
D14*
%TO.C,R10*%
X174075000Y-133750000D03*
X172425000Y-133750000D03*
%TD*%
D30*
%TO.C,GLO3*%
X321812232Y-33849968D03*
X321812232Y-32349968D03*
X316362232Y-33849968D03*
D31*
X316362232Y-32349968D03*
%TD*%
D60*
%TO.C,C13*%
X183538500Y-52197000D03*
X181713500Y-52197000D03*
%TD*%
D36*
%TO.C,R22*%
X35500000Y-44825000D03*
X35500000Y-43175000D03*
%TD*%
D12*
%TO.C,HE17*%
X81280000Y-61912500D03*
X71120000Y-61912500D03*
D11*
X77150000Y-62850000D03*
X75250000Y-62850000D03*
X76200000Y-60975000D03*
%TD*%
D27*
%TO.C,CA1*%
X323500000Y-107558504D03*
X324460000Y-107558504D03*
%TD*%
D25*
%TO.C,LED15*%
X35375000Y-56082500D03*
X35375000Y-57582500D03*
X40825000Y-56082500D03*
D26*
X40825000Y-57582500D03*
%TD*%
D14*
%TO.C,C30*%
X300325000Y-127250000D03*
X298675000Y-127250000D03*
%TD*%
D28*
%TO.C,CL35*%
X147550000Y-76612500D03*
X149200000Y-76612500D03*
%TD*%
D14*
%TO.C,CL79*%
X285837500Y-137025000D03*
X284187500Y-137025000D03*
%TD*%
D25*
%TO.C,LED54*%
X221112500Y-94182500D03*
X221112500Y-95682500D03*
X226562500Y-94182500D03*
D26*
X226562500Y-95682500D03*
%TD*%
D14*
%TO.C,C28*%
X174075000Y-138500000D03*
X172425000Y-138500000D03*
%TD*%
D25*
%TO.C,LED51*%
X163962500Y-94182500D03*
X163962500Y-95682500D03*
X169412500Y-94182500D03*
D26*
X169412500Y-95682500D03*
%TD*%
D28*
%TO.C,CL63*%
X142787500Y-114712500D03*
X144437500Y-114712500D03*
%TD*%
D12*
%TO.C,HE69*%
X257492500Y-119062500D03*
X247332500Y-119062500D03*
D11*
X253362500Y-120000000D03*
X251462500Y-120000000D03*
X252412500Y-118125000D03*
%TD*%
D12*
%TO.C,HE66*%
X200342500Y-119062500D03*
X190182500Y-119062500D03*
D11*
X196212500Y-120000000D03*
X194312500Y-120000000D03*
X195262500Y-118125000D03*
%TD*%
D25*
%TO.C,LED24*%
X206825000Y-56082500D03*
X206825000Y-57582500D03*
X212275000Y-56082500D03*
D26*
X212275000Y-57582500D03*
%TD*%
D30*
%TO.C,AMB6*%
X321812232Y-78835091D03*
X321812232Y-77335091D03*
X316362232Y-78835091D03*
D31*
X316362232Y-77335091D03*
%TD*%
D51*
%TO.C,C6*%
X184993204Y-145520000D03*
X184993204Y-146480000D03*
%TD*%
D12*
%TO.C,HE52*%
X190817500Y-100012500D03*
X180657500Y-100012500D03*
D11*
X186687500Y-100950000D03*
X184787500Y-100950000D03*
X185737500Y-99075000D03*
%TD*%
D30*
%TO.C,LED63*%
X140837500Y-114732500D03*
X140837500Y-113232500D03*
X135387500Y-114732500D03*
D31*
X135387500Y-113232500D03*
%TD*%
D61*
%TO.C,U3*%
X150555999Y-124327500D03*
X149606000Y-124327500D03*
X148656001Y-124327500D03*
X148656001Y-122052500D03*
X150555999Y-122052500D03*
%TD*%
D27*
%TO.C,C11*%
X189952500Y-136875000D03*
X190912500Y-136875000D03*
%TD*%
D36*
%TO.C,R6*%
X331250000Y-70325000D03*
X331250000Y-68675000D03*
%TD*%
%TO.C,R13*%
X330750000Y-103825000D03*
X330750000Y-102175000D03*
%TD*%
%TO.C,C17*%
X180038080Y-135741632D03*
X180038080Y-134091632D03*
%TD*%
D25*
%TO.C,LED58*%
X330650000Y-94182500D03*
X330650000Y-95682500D03*
X336100000Y-94182500D03*
D26*
X336100000Y-95682500D03*
%TD*%
D27*
%TO.C,CA2*%
X323727107Y-101807559D03*
X324687107Y-101807559D03*
%TD*%
D14*
%TO.C,CL15*%
X33425000Y-56062500D03*
X31775000Y-56062500D03*
%TD*%
D30*
%TO.C,LED70*%
X281331250Y-114732500D03*
X281331250Y-113232500D03*
X275881250Y-114732500D03*
D31*
X275881250Y-113232500D03*
%TD*%
D25*
%TO.C,LED21*%
X149675000Y-56082500D03*
X149675000Y-57582500D03*
X155125000Y-56082500D03*
D26*
X155125000Y-57582500D03*
%TD*%
D14*
%TO.C,CL45*%
X40568750Y-94162500D03*
X38918750Y-94162500D03*
%TD*%
D62*
%TO.C,Q2*%
X338749999Y-128050000D03*
X338749999Y-129950000D03*
X336874998Y-129000000D03*
%TD*%
D33*
%TO.C,C9*%
X181943080Y-134152032D03*
X181943080Y-133192032D03*
%TD*%
D12*
%TO.C,HE7*%
X167005000Y-38100000D03*
X156845000Y-38100000D03*
D11*
X162875000Y-39037500D03*
X160975000Y-39037500D03*
X161925000Y-37162500D03*
%TD*%
D63*
%TO.C,VC1*%
X183356096Y-70408692D03*
X183356096Y-67703692D03*
%TD*%
D33*
%TO.C,EC1*%
X328250000Y-103730000D03*
X328250000Y-102770000D03*
%TD*%
D28*
%TO.C,CL64*%
X161837500Y-114712500D03*
X163487500Y-114712500D03*
%TD*%
D14*
%TO.C,CL55*%
X238212500Y-94162500D03*
X236562500Y-94162500D03*
%TD*%
D12*
%TO.C,HE29*%
X338455000Y-61912500D03*
X328295000Y-61912500D03*
D11*
X334325000Y-62850000D03*
X332425000Y-62850000D03*
X333375000Y-60975000D03*
%TD*%
D28*
%TO.C,CL10*%
X228512500Y-33750000D03*
X230162500Y-33750000D03*
%TD*%
D27*
%TO.C,CA8*%
X323727107Y-67301890D03*
X324687107Y-67301890D03*
%TD*%
D28*
%TO.C,CL39*%
X223750000Y-76612500D03*
X225400000Y-76612500D03*
%TD*%
D62*
%TO.C,Q1*%
X329187500Y-68500000D03*
X329187500Y-70400000D03*
X327312499Y-69450000D03*
%TD*%
D28*
%TO.C,CL32*%
X90400000Y-76612500D03*
X92050000Y-76612500D03*
%TD*%
D12*
%TO.C,HE46*%
X76517500Y-100012500D03*
X66357500Y-100012500D03*
D11*
X72387500Y-100950000D03*
X70487500Y-100950000D03*
X71437500Y-99075000D03*
%TD*%
D28*
%TO.C,CL8*%
X185650000Y-33750000D03*
X187300000Y-33750000D03*
%TD*%
D64*
%TO.C,C22*%
X227000000Y-110712500D03*
X227000000Y-108887500D03*
%TD*%
D54*
%TO.C,MUX2*%
X166562124Y-84726212D03*
X166915678Y-84372658D03*
X167269231Y-84019105D03*
X167622785Y-83665551D03*
X167976338Y-83311998D03*
X168329891Y-82958445D03*
X168683445Y-82604891D03*
X169036998Y-82251338D03*
X169390551Y-81897785D03*
X169744105Y-81544231D03*
X170097658Y-81190678D03*
X170451212Y-80837124D03*
D55*
X172448788Y-80837124D03*
X172802342Y-81190678D03*
X173155895Y-81544231D03*
X173509449Y-81897785D03*
X173863002Y-82251338D03*
X174216555Y-82604891D03*
X174570109Y-82958445D03*
X174923662Y-83311998D03*
X175277215Y-83665551D03*
X175630769Y-84019105D03*
X175984322Y-84372658D03*
X176337876Y-84726212D03*
D54*
X176337876Y-86723788D03*
X175984322Y-87077342D03*
X175630769Y-87430895D03*
X175277215Y-87784449D03*
X174923662Y-88138002D03*
X174570109Y-88491555D03*
X174216555Y-88845109D03*
X173863002Y-89198662D03*
X173509449Y-89552215D03*
X173155895Y-89905769D03*
X172802342Y-90259322D03*
X172448788Y-90612876D03*
D55*
X170451212Y-90612876D03*
X170097658Y-90259322D03*
X169744105Y-89905769D03*
X169390551Y-89552215D03*
X169036998Y-89198662D03*
X168683445Y-88845109D03*
X168329891Y-88491555D03*
X167976338Y-88138002D03*
X167622785Y-87784449D03*
X167269231Y-87430895D03*
X166915678Y-87077342D03*
X166562124Y-86723788D03*
%TD*%
D28*
%TO.C,CL12*%
X266612500Y-33750000D03*
X268262500Y-33750000D03*
%TD*%
D12*
%TO.C,HE3*%
X86042500Y-38100000D03*
X75882500Y-38100000D03*
D11*
X81912500Y-39037500D03*
X80012500Y-39037500D03*
X80962500Y-37162500D03*
%TD*%
D28*
%TO.C,CL33*%
X109450000Y-76612500D03*
X111100000Y-76612500D03*
%TD*%
D27*
%TO.C,CA7*%
X323727107Y-73052835D03*
X324687107Y-73052835D03*
%TD*%
D30*
%TO.C,LED6*%
X145600000Y-33770000D03*
X145600000Y-32270000D03*
X140150000Y-33770000D03*
D31*
X140150000Y-32270000D03*
%TD*%
D12*
%TO.C,HE21*%
X157480000Y-61912500D03*
X147320000Y-61912500D03*
D11*
X153350000Y-62850000D03*
X151450000Y-62850000D03*
X152400000Y-60975000D03*
%TD*%
D14*
%TO.C,CL49*%
X123912500Y-94162500D03*
X122262500Y-94162500D03*
%TD*%
D65*
%TO.C,U6*%
X328249999Y-105200000D03*
X328749999Y-105200000D03*
X329249999Y-105200000D03*
X329749999Y-105200000D03*
X330249999Y-105200000D03*
X330749999Y-105200000D03*
X331249999Y-105200000D03*
X331749999Y-105200000D03*
X332249999Y-105200000D03*
X332749999Y-105200000D03*
X333249999Y-105200000D03*
X333749999Y-105200000D03*
D66*
X334549999Y-106000000D03*
X334549999Y-106500000D03*
X334549999Y-107000000D03*
X334549999Y-107500000D03*
X334549999Y-108000000D03*
X334549999Y-108500000D03*
X334549999Y-109000000D03*
X334549999Y-109500000D03*
X334549999Y-110000000D03*
X334549999Y-110500000D03*
X334549999Y-111000000D03*
X334549999Y-111500000D03*
D65*
X333749999Y-112300000D03*
X333249999Y-112300000D03*
X332749999Y-112300000D03*
X332249999Y-112300000D03*
X331749999Y-112300000D03*
X331249999Y-112300000D03*
X330749999Y-112300000D03*
X330249999Y-112300000D03*
X329749999Y-112300000D03*
X329249999Y-112300000D03*
X328749999Y-112300000D03*
X328249999Y-112300000D03*
D66*
X327449999Y-111500000D03*
X327449999Y-111000000D03*
X327449999Y-110499999D03*
X327449999Y-110000000D03*
X327449999Y-109500000D03*
X327449999Y-109000000D03*
X327449999Y-108500000D03*
X327449999Y-108000000D03*
X327449999Y-107500000D03*
X327449999Y-107000001D03*
X327449999Y-106500000D03*
X327449999Y-106000000D03*
D67*
X330999999Y-108750000D03*
%TD*%
D68*
%TO.C,J1*%
X336000000Y-146075000D03*
X336000000Y-147075000D03*
X336000000Y-148075000D03*
D69*
X339875000Y-144775000D03*
X339875000Y-149375000D03*
%TD*%
D25*
%TO.C,LED74*%
X85381250Y-132282500D03*
X85381250Y-133782500D03*
X90831250Y-132282500D03*
D26*
X90831250Y-133782500D03*
%TD*%
D30*
%TO.C,LED44*%
X336100000Y-76632500D03*
X336100000Y-75132500D03*
X330650000Y-76632500D03*
D31*
X330650000Y-75132500D03*
%TD*%
D12*
%TO.C,HE45*%
X50323750Y-100012500D03*
X40163750Y-100012500D03*
D11*
X46193750Y-100950000D03*
X44293750Y-100950000D03*
X45243750Y-99075000D03*
%TD*%
D14*
%TO.C,CL53*%
X200112500Y-94162500D03*
X198462500Y-94162500D03*
%TD*%
D25*
%TO.C,LED50*%
X144912500Y-94182500D03*
X144912500Y-95682500D03*
X150362500Y-94182500D03*
D26*
X150362500Y-95682500D03*
%TD*%
D12*
%TO.C,HE35*%
X147955000Y-80962500D03*
X137795000Y-80962500D03*
D11*
X143825000Y-81900000D03*
X141925000Y-81900000D03*
X142875000Y-80025000D03*
%TD*%
D25*
%TO.C,LED52*%
X183012500Y-94182500D03*
X183012500Y-95682500D03*
X188462500Y-94182500D03*
D26*
X188462500Y-95682500D03*
%TD*%
D14*
%TO.C,CL57*%
X288218750Y-94162500D03*
X286568750Y-94162500D03*
%TD*%
D12*
%TO.C,HE20*%
X138430000Y-61912500D03*
X128270000Y-61912500D03*
D11*
X134300000Y-62850000D03*
X132400000Y-62850000D03*
X133350000Y-60975000D03*
%TD*%
D30*
%TO.C,LED35*%
X145600000Y-76632500D03*
X145600000Y-75132500D03*
X140150000Y-76632500D03*
D31*
X140150000Y-75132500D03*
%TD*%
D28*
%TO.C,CL62*%
X123737500Y-114712500D03*
X125387500Y-114712500D03*
%TD*%
D12*
%TO.C,HE8*%
X186055000Y-38100000D03*
X175895000Y-38100000D03*
D11*
X181925000Y-39037500D03*
X180025000Y-39037500D03*
X180975000Y-37162500D03*
%TD*%
D12*
%TO.C,HE50*%
X152717500Y-100012500D03*
X142557500Y-100012500D03*
D11*
X148587500Y-100950000D03*
X146687500Y-100950000D03*
X147637500Y-99075000D03*
%TD*%
D14*
%TO.C,R3*%
X196534880Y-136300000D03*
X194884880Y-136300000D03*
%TD*%
D28*
%TO.C,CL37*%
X185656484Y-76646420D03*
X187306484Y-76646420D03*
%TD*%
D12*
%TO.C,HE11*%
X247967500Y-38100000D03*
X237807500Y-38100000D03*
D11*
X243837500Y-39037500D03*
X241937500Y-39037500D03*
X242887500Y-37162500D03*
%TD*%
D12*
%TO.C,HE5*%
X124142500Y-38100000D03*
X113982500Y-38100000D03*
D11*
X120012500Y-39037500D03*
X118112500Y-39037500D03*
X119062500Y-37162500D03*
%TD*%
M02*
